# Made in Blockbench 4.12.3
mtllib bus.mtl

o shell
v 1.3125 2.875 4.375
v 1.3125 2.875 -3.9375
v 1.3125 0.1875 4.4375
v 1.3125 0.1875 -4.5
v 1.3125 0 -3.25
v 1.3125 2.875 -3.25
v 1.3125 0 2.4375
v 1.3125 2.875 2.4375
v 1.3125 1 -4.5
v 1.3125 1 -3.25
v 1.3125 1 2.4375
v 1.3125 1 4.5
v 1.3125 0.375 4.453125
v 1.3125 0.375 2.4375
v 1.3125 0.375 -3.25
v 1.3125 0.375 -4.5
v 1.3125 1 -2.03125
v 1.3125 2.875 -2.03125
v 1.3125 0 -2.03125
v 1.3125 0.375 -2.03125
v 1.3125 0.375 0.828125
v 1.3125 0 0.828125
v 1.3125 2.875 0.828125
v 1.3125 1 0.828125
v -1.3125 2.875 4.375
v -1.3125 2.875 -3.9375
v -1.3125 0.1875 4.4375
v -1.3125 0.1875 -4.5
v -1.3125 0 -3.25
v -1.3125 2.875 -3.25
v -1.3125 0 2.4375
v -1.3125 2.875 2.4375
v -1.3125 1 -4.5
v -1.3125 1 -3.25
v -1.3125 1 2.4375
v -1.3125 1 4.5
v -1.3125 0.375 4.453125
v -1.3125 0.375 2.4375
v -1.3125 0.375 -3.25
v -1.3125 0.375 -4.5
v -1.3125 1 -2.03125
v -1.3125 2.875 -2.03125
v -1.3125 0 -2.03125
v -1.3125 0.375 -2.03125
v -1.3125 0.375 0.828125
v -1.3125 0 0.828125
v -1.3125 2.875 0.828125
v -1.3125 1 0.828125
vt 0.5 0.35189765625
vt 0.5 0.2347534765625
vt 0.6640625 0.2347534765625
vt 0.6640625 0.35189765625
vt 0.104590390625 0.17972449218749997
vt 0.104590390625 0.06258031249999996
vt 0.268652890625 0.06258031249999996
vt 0.268652890625 0.17972449218749997
vt 0.349357109375 0.179621015625
vt 0.349357109375 0.06247687499999999
vt 0.271232109375 0.06247687499999999
vt 0.306388359375 0.179621015625
vt 0.66796875 0.6994033203125001
vt 0.66796875 0.65645046875
vt 0.83203125 0.65645046875
vt 0.83203125 0.6994033203125001
vt 0.419669609375 0.363214765625
vt 0.495841484375 0.363214765625
vt 0.495841484375 0.246070625
vt 0.419669609375 0.246070625
vt 0.66796875 0.65645046875
vt 0.66796875 0.5803067578125001
vt 0.83203125 0.5803067578125001
vt 0.83203125 0.65645046875
vt 0.825345859375 0.179621015625
vt 0.833158359375 0.06247687499999999
vt 0.704252109375 0.06247687499999999
vt 0.704252109375 0.179621015625
vt 0.83203125 0.18006429687500003
vt 0.83203125 0.3011132421875
vt 0.66796875 0.3011132421875
vt 0.66796875 0.18006429687500003
vt 0.268652890625 0.011817851562500037
vt 0.268652890625 0.023532265624999993
vt 0.104590390625 0.023532265624999993
vt 0.104590390625 0.011817851562500037
vt 0.271232109375 0.011714414062499956
vt 0.271232109375 0.023428828125000023
vt 0.349357109375 0.023428828125000023
vt 0.349357109375 0
vt 0.419669609375 0.20702257812500002
vt 0.495841484375 0.20702257812500002
vt 0.495841484375 0.18359375
vt 0.419669609375 0.18359375
vt 0.704252109375 0
vt 0.704252109375 0.023428828125000023
vt 0.830228671875 0.023428828125000023
vt 0.829252109375 0.011714414062499956
vt 0.6640625 0.18399101562499998
vt 0.6640625 0.19570542968750004
vt 0.5 0.19570542968750004
vt 0.5 0.18399101562499998
vt 0.5 0.2347534765625
vt 0.5 0.19570542968750004
vt 0.6640625 0.19570542968750004
vt 0.6640625 0.2347534765625
vt 0.833158359375 0.06247687499999999
vt 0.830228671875 0.023428828125000023
vt 0.704252109375 0.023428828125000023
vt 0.704252109375 0.06247687499999999
vt 0.419669609375 0.246070625
vt 0.495841484375 0.246070625
vt 0.495841484375 0.20702257812500002
vt 0.419669609375 0.20702257812500002
vt 0.349357109375 0.06247687499999999
vt 0.349357109375 0.023428828125000023
vt 0.271232109375 0.023428828125000023
vt 0.271232109375 0.06247687499999999
vt 0.104590390625 0.06258031249999996
vt 0.104590390625 0.023532265624999993
vt 0.268652890625 0.023532265624999993
vt 0.268652890625 0.06258031249999996
vt 0.704252109375 0.06247687499999999
vt 0.603666171875 0.06247687499999999
vt 0.603666171875 0.179621015625
vt 0.704252109375 0.179621015625
vt 0.83203125 0.3011132421875
vt 0.83203125 0.40166195312499997
vt 0.66796875 0.40166195312499997
vt 0.66796875 0.3011132421875
vt 0.704252109375 0
vt 0.603666171875 0
vt 0.603666171875 0.023428828125000023
vt 0.704252109375 0.023428828125000023
vt 0.704252109375 0.023428828125000023
vt 0.603666171875 0.023428828125000023
vt 0.603666171875 0.06247687499999999
vt 0.704252109375 0.06247687499999999
vt 0.424955234375 0.023428828125000023
vt 0.603666171875 0.023428828125000023
vt 0.603666171875 0
vt 0.424955234375 0
vt 1 0.25674125000000003
vt 1 0.34557558593750004
vt 0.8359375 0.34557558593750004
vt 0.8359375 0.25674125000000003
vt 0.66796875 0.5803067578125001
vt 0.66796875 0.40166195312499997
vt 0.83203125 0.40166195312499997
vt 0.83203125 0.5803067578125001
vt 0.424955234375 0.179621015625
vt 0.603666171875 0.179621015625
vt 0.603666171875 0.06247687499999999
vt 0.424955234375 0.06247687499999999
vt 0.603666171875 0.06247687499999999
vt 0.424955234375 0.06247687499999999
vt 0.424955234375 0.023428828125000023
vt 0.603666171875 0.023428828125000023
vt 0.2707641796875 0.06247687499999999
vt 0.3488891796875 0.06247687499999999
vt 0.3488891796875 0.179621015625
vt 0.3059204296875 0.179621015625
vt 0.4250610546875 0.06247687499999999
vt 0.4250610546875 0.179621015625
vt 0.3488891796875 0.179621015625
vt 0.3488891796875 0.06247687499999999
vt 0.7041748046875 0.06247687499999999
vt 0.8330810546875 0.06247687499999999
vt 0.8252685546875 0.179621015625
vt 0.7041748046875 0.179621015625
vt 0.3488891796875 0.023428828125000023
vt 0.2707641796875 0.023428828125000023
vt 0.2707641796875 0.011714414062499956
vt 0.3488891796875 0
vt 0.4250610546875 0
vt 0.4250610546875 0.023428828125000023
vt 0.3488891796875 0.023428828125000023
vt 0.3488891796875 0
vt 0.8301513671875 0.023428828125000023
vt 0.7041748046875 0.023428828125000023
vt 0.7041748046875 0
vt 0.8291748046875 0.011714414062499956
vt 0.7041748046875 0.023428828125000023
vt 0.8301513671875 0.023428828125000023
vt 0.8330810546875 0.06247687499999999
vt 0.7041748046875 0.06247687499999999
vt 0.4250610546875 0.023428828125000023
vt 0.4250610546875 0.06247687499999999
vt 0.3488891796875 0.06247687499999999
vt 0.3488891796875 0.023428828125000023
vt 0.2707641796875 0.023428828125000023
vt 0.3488891796875 0.023428828125000023
vt 0.3488891796875 0.06247687499999999
vt 0.2707641796875 0.06247687499999999
vt 0.6035888671875 0.179621015625
vt 0.6035888671875 0.06247687499999999
vt 0.7041748046875 0.06247687499999999
vt 0.7041748046875 0.179621015625
vt 0.6035888671875 0.023428828125000023
vt 0.6035888671875 0
vt 0.7041748046875 0
vt 0.7041748046875 0.023428828125000023
vt 0.6035888671875 0.06247687499999999
vt 0.6035888671875 0.023428828125000023
vt 0.7041748046875 0.023428828125000023
vt 0.7041748046875 0.06247687499999999
vt 0.6035888671875 0
vt 0.6035888671875 0.023428828125000023
vt 0.4248779296875 0.023428828125000023
vt 0.4248779296875 0
vt 0.6035888671875 0.06247687499999999
vt 0.6035888671875 0.179621015625
vt 0.4248779296875 0.179621015625
vt 0.4248779296875 0.06247687499999999
vt 0.6035888671875 0.023428828125000023
vt 0.6035888671875 0.06247687499999999
vt 0.4248779296875 0.06247687499999999
vt 0.4248779296875 0.023428828125000023
vn 0 0.06651901052377393 0.9977851578566089
vn 0 0.28734788556634544 -0.9578262852211515
vn 1 0 0
vn 0 1 0
vn 1 0 0
vn 0 1 0
vn 1 0 0
vn 0 1 0
vn 0 0 -1
vn 1 0 0
vn 1 0 0
vn 1 0 0
vn 0 -0.08304547985373997 0.9965457582448798
vn 0 -0.07478994824163424 0.9971993098884565
vn 1 0 0
vn 1 0 0
vn 1 0 0
vn 0 0 -1
vn 1 0 0
vn 0 1 0
vn 1 0 0
vn 1 0 0
vn 1 0 0
vn 0 -1 0
vn 0 1 0
vn 1 0 0
vn 1 0 0
vn -1 0 0
vn -1 0 0
vn -1 0 0
vn -1 0 0
vn -1 0 0
vn -1 0 0
vn -1 0 0
vn -1 0 0
vn -1 0 0
vn -1 0 0
vn -1 0 0
vn -1 0 0
vn -1 0 0
vn -1 0 0
vn -1 0 0
usemtl m_b99a1d1e-dcf3-e281-0225-1442037cdd93
f 25/1/1 36/2/1 12/3/1 1/4/1
f 2/5/2 9/6/2 33/7/2 26/8/2
f 6/9/3 10/10/3 9/11/3 2/12/3
f 26/13/4 30/14/4 6/15/4 2/16/4
f 6/17/5 18/18/5 17/19/5 10/20/5
f 30/21/6 42/22/6 18/23/6 6/24/6
f 1/25/7 12/26/7 11/27/7 8/28/7
f 1/29/8 8/30/8 32/31/8 25/32/8
f 28/33/9 40/34/9 16/35/9 4/36/9
f 4/37/10 16/38/10 15/39/10 5/40/10
f 15/41/11 20/42/11 19/43/11 5/44/11
f 7/45/12 14/46/12 13/47/12 3/48/12
f 3/49/13 13/50/13 37/51/13 27/52/13
f 36/53/14 37/54/14 13/55/14 12/56/14
f 12/57/15 13/58/15 14/59/15 11/60/15
f 10/61/16 17/62/16 20/63/16 15/64/16
f 10/65/17 15/66/17 16/67/17 9/68/17
f 9/69/18 16/70/18 40/71/18 33/72/18
f 11/73/19 24/74/19 23/75/19 8/76/19
f 8/77/20 23/78/20 47/79/20 32/80/20
f 7/81/21 22/82/21 21/83/21 14/84/21
f 14/85/22 21/86/22 24/87/22 11/88/22
f 20/89/23 21/90/23 22/91/23 19/92/23
f 19/93/24 22/94/24 46/95/24 43/96/24
f 42/97/25 47/98/25 23/99/25 18/100/25
f 18/101/26 23/102/26 24/103/26 17/104/26
f 17/105/27 24/106/27 21/107/27 20/108/27
f 33/109/28 34/110/28 30/111/28 26/112/28
f 41/113/29 42/114/29 30/115/29 34/116/29
f 35/117/30 36/118/30 25/119/30 32/120/30
f 39/121/31 40/122/31 28/123/31 29/124/31
f 43/125/32 44/126/32 39/127/32 29/128/32
f 37/129/33 38/130/33 31/131/33 27/132/33
f 38/133/34 37/134/34 36/135/34 35/136/34
f 44/137/35 41/138/35 34/139/35 39/140/35
f 40/141/36 39/142/36 34/143/36 33/144/36
f 47/145/37 48/146/37 35/147/37 32/148/37
f 45/149/38 46/150/38 31/151/38 38/152/38
f 48/153/39 45/154/39 38/155/39 35/156/39
f 46/157/40 45/158/40 44/159/40 43/160/40
f 48/161/41 47/162/41 42/163/41 41/164/41
f 45/165/42 48/166/42 41/167/42 44/168/42
o cube
v 0.875 0.7527067816903784 3.29364666047723
v 0.875 0.6872644109206956 0.7945033480383372
v 0.875 0.06544237076968287 3.311643312438893
v 0.875 0 0.8125
v -0.875 0.6872644109206956 0.7945033480383372
v -0.875 0.7527067816903784 3.29364666047723
v -0.875 0 0.8125
v -0.875 0.06544237076968287 3.311643312438893
vt 0.41796875 0.25
vt 0.26171875 0.25
vt 0.26171875 0.20703125
vt 0.41796875 0.20703125
vt 0.26171875 0.25
vt 0.41796875 0.25
vt 0.41796875 0.20703125
vt 0.26171875 0.20703125
vt 0.890625 1
vt 1 1
vt 1 0.84375
vt 0.890625 0.84375
vn 1 0 0
vn -1 0 0
vn 0 -0.9996573249755573 0.02617694830787315
usemtl m_b99a1d1e-dcf3-e281-0225-1442037cdd93
f 51/172/43 52/171/43 50/170/43 49/169/43
f 55/176/44 56/175/44 54/174/44 53/173/44
f 55/180/45 52/179/45 51/178/45 56/177/45
o cube
v 0.875 0.6843348863774354 -2.934106045142346
v 0.875 0.8161227960927434 -4.302775817897217
v 0.875 0 -3
v 0.875 0.13178790971530796 -4.3686697727548705
v -0.875 0.8161227960927434 -4.302775817897217
v -0.875 0.6843348863774354 -2.934106045142346
v -0.875 0.13178790971530796 -4.3686697727548705
v -0.875 0 -3
vt 0.33203125 0.29296875
vt 0.41796875 0.29296875
vt 0.41796875 0.25
vt 0.33203125 0.25
vt 0.41796875 0.29296875
vt 0.33203125 0.29296875
vt 0.33203125 0.25
vt 0.41796875 0.25
vt 0.890625 1
vt 1 1
vt 1 0.9140625
vt 0.890625 0.9140625
vn 1 0 0
vn -1 0 0
vn 0 -0.9953961983671789 -0.09584575252022398
usemtl m_b99a1d1e-dcf3-e281-0225-1442037cdd93
f 59/184/46 60/183/46 58/182/46 57/181/46
f 63/188/47 64/187/47 62/186/47 61/185/47
f 63/192/48 60/191/48 59/190/48 64/189/48
o cube
v -1.3353765877365273 1.625 -4.039623412263473
v -1.3978765877365273 1.625 -4.147876587736527
v -1.3353765877365273 1.1875 -4.039623412263473
v -1.3978765877365273 1.1875 -4.147876587736527
v -1.5602563509461096 1.625 -4.054126587736527
v -1.4977563509461096 1.625 -3.9458734122634724
v -1.5602563509461096 1.1875 -4.054126587736527
v -1.4977563509461096 1.1875 -3.9458734122634724
vt 0.05859375 0.03515625
vt 0.0703125 0.03515625
vt 0.0703125 0.0078125
vt 0.05859375 0.0078125
vt 0.05078125 0.03515625
vt 0.05859375 0.03515625
vt 0.05859375 0.0078125
vt 0.05078125 0.0078125
vt 0.0703125 0.03515625
vt 0.08203125 0.03515625
vt 0.08203125 0.0078125
vt 0.0703125 0.0078125
vt 0.05859375 0.03515625
vt 0.05078125 0.03515625
vt 0.05078125 0.0078125
vt 0.05859375 0.0078125
vt 0.046875 0.04296875
vt 0.05859375 0.04296875
vt 0.05859375 0.03515625
vt 0.046875 0.03515625
vt 0.05859375 0.03515625
vt 0.0703125 0.03515625
vt 0.0703125 0.04296875
vt 0.05859375 0.04296875
vn -0.49999999999999994 0 -0.8660254037844387
vn 0.8660254037844387 0 -0.49999999999999994
vn 0.49999999999999994 0 0.8660254037844387
vn -0.8660254037844387 0 0.49999999999999994
vn 0 1 0
vn 0 -1 0
usemtl m_b99a1d1e-dcf3-e281-0225-1442037cdd93
f 68/196/49 71/195/49 69/194/49 66/193/49
f 67/200/50 68/199/50 66/198/50 65/197/50
f 72/204/51 67/203/51 65/202/51 70/201/51
f 71/208/52 72/207/52 70/206/52 69/205/52
f 70/212/53 65/211/53 66/210/53 69/209/53
f 71/216/54 68/215/54 67/214/54 72/213/54
o cube
v -1.3125 2.0625 -4.125
v -1.3125 2.0625 -4.125
v -1.3125 1.625 -4.125
v -1.3125 1.625 -4.125
v -1.5290063509461096 2.0625 -4
v -1.5290063509461096 2.0625 -4
v -1.5290063509461096 1.625 -4
v -1.5290063509461096 1.625 -4
vt 0.03515625 0.03515625
vt 0.05078125 0.03515625
vt 0.05078125 0.0078125
vt 0.03515625 0.0078125
vt 0.015625 0.04296875
vt 0.015625 0.04296875
vt 0.015625 0.015625
vt 0.015625 0.015625
vt 0.05078125 0.03515625
vt 0.03515625 0.03515625
vt 0.03515625 0.0078125
vt 0.05078125 0.0078125
vt 0.015625 0.04296875
vt 0.015625 0.04296875
vt 0.015625 0.015625
vt 0.015625 0.015625
vt 0.015625 0.04296875
vt 0.03125 0.04296875
vt 0.03125 0.04296875
vt 0.015625 0.04296875
vt 0.015625 0.04296875
vt 0.03125 0.04296875
vt 0.03125 0.04296875
vt 0.015625 0.04296875
vn -0.49999999999999994 0 -0.8660254037844387
vn 0.8660254037844387 0 -0.49999999999999994
vn 0.49999999999999994 0 0.8660254037844387
vn -0.8660254037844387 0 0.49999999999999994
vn 0 1 0
vn 0 -1 0
usemtl m_b99a1d1e-dcf3-e281-0225-1442037cdd93
f 76/220/55 79/219/55 77/218/55 74/217/55
f 75/224/56 76/223/56 74/222/56 73/221/56
f 80/228/57 75/227/57 73/226/57 78/225/57
f 79/232/58 80/231/58 78/230/58 77/229/58
f 78/236/59 73/235/59 74/234/59 77/233/59
f 79/240/60 76/239/60 75/238/60 80/237/60
o cube
v 1.3125 2.0625 -4.125
v 1.3125 2.0625 -4.125
v 1.3125 1.625 -4.125
v 1.3125 1.625 -4.125
v 1.5290063509461098 2.0625 -4
v 1.5290063509461098 2.0625 -4
v 1.5290063509461098 1.625 -4
v 1.5290063509461098 1.625 -4
vt 0.03515625 0.03515625
vt 0.05078125 0.03515625
vt 0.05078125 0.0078125
vt 0.03515625 0.0078125
vt 0.015625 0.04296875
vt 0.015625 0.04296875
vt 0.015625 0.015625
vt 0.015625 0.015625
vt 0.05078125 0.03515625
vt 0.03515625 0.03515625
vt 0.03515625 0.0078125
vt 0.05078125 0.0078125
vt 0.015625 0.04296875
vt 0.015625 0.04296875
vt 0.015625 0.015625
vt 0.015625 0.015625
vt 0.015625 0.04296875
vt 0.03125 0.04296875
vt 0.03125 0.04296875
vt 0.015625 0.04296875
vt 0.015625 0.04296875
vt 0.03125 0.04296875
vt 0.03125 0.04296875
vt 0.015625 0.04296875
vn -0.49999999999999994 -6.123233995736767e-17 0.8660254037844388
vn -0.8660254037844388 1.0605752387249069e-16 -0.49999999999999994
vn 0.49999999999999994 6.123233995736767e-17 -0.8660254037844388
vn 0.8660254037844388 -1.0605752387249069e-16 0.49999999999999994
vn 6.123233995736766e-17 1 1.0605752387249067e-16
vn -6.123233995736766e-17 -1 -1.0605752387249067e-16
usemtl m_b99a1d1e-dcf3-e281-0225-1442037cdd93
f 84/244/61 87/243/61 85/242/61 82/241/61
f 83/248/62 84/247/62 82/246/62 81/245/62
f 88/252/63 83/251/63 81/250/63 86/249/63
f 87/256/64 88/255/64 86/254/64 85/253/64
f 86/260/65 81/259/65 82/258/65 85/257/65
f 87/264/66 84/263/66 83/262/66 88/261/66
o cube
v 1.4977563509461096 1.625 -3.9458734122634724
v 1.5602563509461096 1.625 -4.054126587736527
v 1.4977563509461096 1.1875 -3.9458734122634724
v 1.5602563509461096 1.1875 -4.054126587736527
v 1.3978765877365273 1.625 -4.147876587736527
v 1.3353765877365273 1.625 -4.039623412263473
v 1.3978765877365273 1.1875 -4.147876587736527
v 1.3353765877365273 1.1875 -4.039623412263473
vt 0.05859375 0.03515625
vt 0.0703125 0.03515625
vt 0.0703125 0.0078125
vt 0.05859375 0.0078125
vt 0.05078125 0.03515625
vt 0.05859375 0.03515625
vt 0.05859375 0.0078125
vt 0.05078125 0.0078125
vt 0.0703125 0.03515625
vt 0.08203125 0.03515625
vt 0.08203125 0.0078125
vt 0.0703125 0.0078125
vt 0.05859375 0.03515625
vt 0.05078125 0.03515625
vt 0.05078125 0.0078125
vt 0.05859375 0.0078125
vt 0.046875 0.04296875
vt 0.05859375 0.04296875
vt 0.05859375 0.03515625
vt 0.046875 0.03515625
vt 0.05859375 0.03515625
vt 0.0703125 0.03515625
vt 0.0703125 0.04296875
vt 0.05859375 0.04296875
vn 0.49999999999999994 0 -0.8660254037844387
vn 0.8660254037844387 0 0.49999999999999994
vn -0.49999999999999994 0 0.8660254037844387
vn -0.8660254037844387 0 -0.49999999999999994
vn 0 1 0
vn 0 -1 0
usemtl m_b99a1d1e-dcf3-e281-0225-1442037cdd93
f 92/268/67 95/267/67 93/266/67 90/265/67
f 91/272/68 92/271/68 90/270/68 89/269/68
f 96/276/69 91/275/69 89/274/69 94/273/69
f 95/280/70 96/279/70 94/278/70 93/277/70
f 94/284/71 89/283/71 90/282/71 93/281/71
f 95/288/72 92/287/72 91/286/72 96/285/72
o cube
v 0.9693544152150428 1.3481509575100397 -4.536855139750736
v 0.9923121411830671 1.2264591580453748 -4.519853705651552
v 0.9693544152150428 1.3481509575100397 -4.536855139750736
v 0.9923121411830671 1.2264591580453748 -4.519853705651552
v -0.11352113701598797 1.0229772252676677 -4.4830724079504085
v -0.13647886298401204 1.1446690247323326 -4.500073842049592
v -0.11352113701598797 1.0229772252676677 -4.4830724079504085
v -0.13647886298401204 1.1446690247323326 -4.500073842049592
vt 0 0.0078125
vt 0.0703125 0.0078125
vt 0.0703125 0.0078125
vt 0 0.0078125
vt 0 0.0078125
vt 0.0078125 0.0078125
vt 0.0078125 0.0078125
vt 0 0.0078125
vt 0 0.0078125
vt 0.0703125 0.0078125
vt 0.0703125 0.0078125
vt 0 0.0078125
vt 0 0.0078125
vt 0.0078125 0.0078125
vt 0.0078125 0.0078125
vt 0 0.0078125
vt 0 0.0078125
vt 0.0703125 0.0078125
vt 0.0703125 0
vt 0 0
vt 0 0
vt 0.0703125 0
vt 0.0703125 0.0078125
vt 0 0.0078125
vn 0.18366180774419255 -0.973534395717319 0.1360114727934739
vn 0.9829629139547157 0.18087282913573968 -0.03269448684546107
vn -0.18366180774419255 0.973534395717319 -0.1360114727934739
vn -0.9829629139547157 -0.18087282913573968 0.03269448684546107
vn -0.007228427615309459 -0.13969896218565186 -0.9901676372203155
vn 0.007228427615309459 0.13969896218565186 0.9901676372203155
usemtl m_b99a1d1e-dcf3-e281-0225-1442037cdd93
f 100/292/73 103/291/73 101/290/73 98/289/73
f 99/296/74 100/295/74 98/294/74 97/293/74
f 104/300/75 99/299/75 97/298/75 102/297/75
f 103/304/76 104/303/76 102/302/76 101/301/76
f 102/308/77 97/307/77 98/306/77 101/305/77
f 103/312/78 100/311/78 99/310/78 104/309/78
o cube
v 0.09435872081815377 1.3471584475660308 -4.526591466697591
v 0.11730783557995617 1.2274516679893837 -4.4988673787046976
v 0.09435872081815377 1.3471584475660308 -4.526591466697591
v 0.11730783557995617 1.2274516679893837 -4.4988673787046976
v -0.9885254426190987 1.0239697352116766 -4.462086081003554
v -1.0114745573809012 1.1436765147883237 -4.4898101689964465
v -0.9885254426190987 1.0239697352116766 -4.462086081003554
v -1.0114745573809012 1.1436765147883237 -4.4898101689964465
vt 0 0.0078125
vt 0.0703125 0.0078125
vt 0.0703125 0.0078125
vt 0 0.0078125
vt 0 0.0078125
vt 0.0078125 0.0078125
vt 0.0078125 0.0078125
vt 0 0.0078125
vt 0 0.0078125
vt 0.0703125 0.0078125
vt 0.0703125 0.0078125
vt 0 0.0078125
vt 0 0.0078125
vt 0.0078125 0.0078125
vt 0.0078125 0.0078125
vt 0 0.0078125
vt 0 0.0078125
vt 0.0703125 0.0078125
vt 0.0703125 0
vt 0 0
vt 0 0
vt 0.0703125 0
vt 0.0703125 0.0078125
vt 0 0.0078125
vn 0.18359291809442008 -0.9576542366131771 0.22179270394313888
vn 0.9829629139547157 0.1808728291357397 -0.03269448684546105
vn -0.18359291809442008 0.9576542366131771 -0.22179270394313888
vn -0.9829629139547157 -0.1808728291357397 0.03269448684546105
vn 0.008806260002411458 -0.224016478807401 -0.974545569487391
vn -0.008806260002411458 0.224016478807401 0.974545569487391
usemtl m_b99a1d1e-dcf3-e281-0225-1442037cdd93
f 108/316/79 111/315/79 109/314/79 106/313/79
f 107/320/80 108/319/80 106/318/80 105/317/80
f 112/324/81 107/323/81 105/322/81 110/321/81
f 111/328/82 112/327/82 110/326/82 109/325/82
f 110/332/83 105/331/83 106/330/83 109/329/83
f 111/336/84 108/335/84 107/334/84 112/333/84
o cube
v 1.140625 2.849448125 -3.9446981250000004
v 1.140625 2.849448125 -4.069698125
v 1.140625 2.411948125 -3.9446981250000004
v 1.140625 2.411948125 -4.069698125
v -1.171875 2.849448125 -4.069698125
v -1.171875 2.849448125 -3.9446981250000004
v -1.171875 2.411948125 -4.069698125
v -1.171875 2.411948125 -3.9446981250000004
vt 0.50390625 0.640625
vt 0.6484375 0.640625
vt 0.6484375 0.61328125
vt 0.50390625 0.61328125
vt 0.49609375 0.640625
vt 0.50390625 0.640625
vt 0.50390625 0.61328125
vt 0.49609375 0.61328125
vt 0.6484375 0.640625
vt 0.65625 0.640625
vt 0.65625 0.61328125
vt 0.6484375 0.61328125
vt 0.50390625 0.6484375
vt 0.6484375 0.6484375
vt 0.6484375 0.640625
vt 0.50390625 0.640625
vn 0 0 -1
vn 1 0 0
vn -1 0 0
vn 0 1 0
usemtl m_b99a1d1e-dcf3-e281-0225-1442037cdd93
f 116/340/85 119/339/85 117/338/85 114/337/85
f 115/344/86 116/343/86 114/342/86 113/341/86
f 119/348/87 120/347/87 118/346/87 117/345/87
f 118/352/88 113/351/88 114/350/88 117/349/88
o cube
v -1.15625 2.583823125 4.336551875
v -1.15625 2.583823125 4.461551875
v -1.15625 2.146323125 4.336551875
v -1.15625 2.146323125 4.461551875
v 1.15625 2.583823125 4.461551875
v 1.15625 2.583823125 4.336551875
v 1.15625 2.146323125 4.461551875
v 1.15625 2.146323125 4.336551875
vt 0.50390625 0.640625
vt 0.6484375 0.640625
vt 0.6484375 0.61328125
vt 0.50390625 0.61328125
vt 0.49609375 0.640625
vt 0.50390625 0.640625
vt 0.50390625 0.61328125
vt 0.49609375 0.61328125
vt 0.6484375 0.640625
vt 0.65625 0.640625
vt 0.65625 0.61328125
vt 0.6484375 0.61328125
vt 0.50390625 0.6484375
vt 0.6484375 0.6484375
vt 0.6484375 0.640625
vt 0.50390625 0.640625
vt 0.50390625 0.64453125
vt 0.6484375 0.64453125
vt 0.6484375 0.63671875
vt 0.50390625 0.63671875
vn 1.2246467991473532e-16 0 1
vn -1 0 1.2246467991473532e-16
vn 1 0 -1.2246467991473532e-16
vn 0 1 0
vn 0 -1 0
usemtl m_b99a1d1e-dcf3-e281-0225-1442037cdd93
f 124/356/89 127/355/89 125/354/89 122/353/89
f 123/360/90 124/359/90 122/358/90 121/357/90
f 127/364/91 128/363/91 126/362/91 125/361/91
f 126/368/92 121/367/92 122/366/92 125/365/92
f 127/372/93 124/371/93 123/370/93 128/369/93
o cube
v 1.375 0.7261457245472855 1.0102843186951325
v 1.375 0.021376258957854305 0.7537692112008807
v 1.375 0.7047694655894312 1.0690151074942515
v 1.375 0 0.8125
v -1.375 0.021376258957854305 0.7537692112008807
v -1.375 0.7261457245472855 1.0102843186951325
v -1.375 0 0.8125
v -1.375 0.7047694655894312 1.0690151074942515
vt 0.1015625 0.18359375
vt 0.1484375 0.18359375
vt 0.1484375 0.1796875
vt 0.1015625 0.1796875
vt 0.1015625 0.18359375
vt 0.1484375 0.18359375
vt 0.1484375 0.1796875
vt 0.1015625 0.1796875
vt 0.4921875 0.4453125
vt 0.6640625 0.4453125
vt 0.6640625 0.3984375
vt 0.4921875 0.3984375
vt 0.828125 1
vt 1 1
vt 1 0.953125
vt 0.828125 0.953125
vn 1 0 0
vn -1 0 0
vn 0 0.3420201433256689 -0.9396926207859083
vn 0 -0.3420201433256689 0.9396926207859083
usemtl m_b99a1d1e-dcf3-e281-0225-1442037cdd93
f 131/376/94 132/375/94 130/374/94 129/373/94
f 135/380/95 136/379/95 134/378/95 133/377/95
f 134/384/96 129/383/96 130/382/96 133/381/96
f 135/388/97 132/387/97 131/386/97 136/385/97
o cube
v 1.375 0.021376258957854305 -3.003769211200881
v 1.375 0.608684146949047 -3.217531800779424
v 1.375 0 -3.0625
v 1.375 0.5873078879911927 -3.276262589578543
v -1.375 0.608684146949047 -3.217531800779424
v -1.375 0.021376258957854305 -3.003769211200881
v -1.375 0.5873078879911927 -3.276262589578543
v -1.375 0 -3.0625
vt 0.1640625 0.625
vt 0.3359375 0.625
vt 0.3359375 0.62109375
vt 0.1640625 0.62109375
vt 0.1015625 0.18359375
vt 0.140625 0.18359375
vt 0.140625 0.1796875
vt 0.1015625 0.1796875
vt 0.1640625 0.625
vt 0.3359375 0.625
vt 0.3359375 0.62109375
vt 0.1640625 0.62109375
vt 0.1015625 0.18359375
vt 0.140625 0.18359375
vt 0.140625 0.1796875
vt 0.1015625 0.1796875
vt 0.4921875 0.4453125
vt 0.6640625 0.4453125
vt 0.6640625 0.40625
vt 0.4921875 0.40625
vt 0.828125 1
vt 1 1
vt 1 0.9609375
vt 0.828125 0.9609375
vn 0 0.9396926207859083 -0.3420201433256689
vn 1 0 0
vn 0 -0.9396926207859083 0.3420201433256689
vn -1 0 0
vn 0 0.3420201433256689 0.9396926207859083
vn 0 -0.3420201433256689 -0.9396926207859083
usemtl m_b99a1d1e-dcf3-e281-0225-1442037cdd93
f 140/392/98 143/391/98 141/390/98 138/389/98
f 139/396/99 140/395/99 138/394/99 137/393/99
f 144/400/100 139/399/100 137/398/100 142/397/100
f 143/404/101 144/403/101 142/402/101 141/401/101
f 142/408/102 137/407/102 138/406/102 141/405/102
f 143/412/103 140/411/103 139/410/103 144/409/103
o cube
v 1.375 0.608684375 -3.2175318749999997
v 1.375 0.608684375 -4.217531875
v 1.375 0.546184375 -3.2175318749999997
v 1.375 0.546184375 -4.217531875
v -1.375 0.608684375 -4.217531875
v -1.375 0.608684375 -3.2175318749999997
v -1.375 0.546184375 -4.217531875
v -1.375 0.546184375 -3.2175318749999997
vt 0.1640625 0.625
vt 0.3359375 0.625
vt 0.3359375 0.62109375
vt 0.1640625 0.62109375
vt 0.1015625 0.18359375
vt 0.1640625 0.18359375
vt 0.1640625 0.1796875
vt 0.1015625 0.1796875
vt 0.1640625 0.625
vt 0.3359375 0.625
vt 0.3359375 0.62109375
vt 0.1640625 0.62109375
vt 0.1015625 0.18359375
vt 0.1640625 0.18359375
vt 0.1640625 0.1796875
vt 0.1015625 0.1796875
vt 0.4921875 0.4453125
vt 0.6640625 0.4453125
vt 0.6640625 0.3828125
vt 0.4921875 0.3828125
vt 0.828125 1
vt 1 1
vt 1 0.9375
vt 0.828125 0.9375
vn 0 0 -1
vn 1 0 0
vn 0 0 1
vn -1 0 0
vn 0 1 0
vn 0 -1 0
usemtl m_b99a1d1e-dcf3-e281-0225-1442037cdd93
f 148/416/104 151/415/104 149/414/104 146/413/104
f 147/420/105 148/419/105 146/418/105 145/417/105
f 152/424/106 147/423/106 145/422/106 150/421/106
f 151/428/107 152/427/107 150/426/107 149/425/107
f 150/432/108 145/431/108 146/430/108 149/429/108
f 151/436/109 148/435/109 147/434/109 152/433/109
o cube
v 1.375 0.608684375 -4.217531875
v 1.375 0.14674460874435674 -4.4088735911825445
v 1.375 0.584766660477182 -4.159789404218044
v 1.375 0.12282689422153864 -4.35113112040059
v -1.375 0.14674460874435674 -4.4088735911825445
v -1.375 0.608684375 -4.217531875
v -1.375 0.12282689422153864 -4.35113112040059
v -1.375 0.584766660477182 -4.159789404218044
vt 0.1640625 0.625
vt 0.3359375 0.625
vt 0.3359375 0.62109375
vt 0.1640625 0.62109375
vt 0.1015625 0.18359375
vt 0.1328125 0.18359375
vt 0.1328125 0.1796875
vt 0.1015625 0.1796875
vt 0.1640625 0.625
vt 0.3359375 0.625
vt 0.3359375 0.62109375
vt 0.1640625 0.62109375
vt 0.1015625 0.18359375
vt 0.1328125 0.18359375
vt 0.1328125 0.1796875
vt 0.1015625 0.1796875
vt 0.4921875 0.4453125
vt 0.6640625 0.4453125
vt 0.6640625 0.4140625
vt 0.4921875 0.4140625
vt 0.828125 1
vt 1 1
vt 1 0.96875
vt 0.828125 0.96875
vn 0 -0.9238795325112866 -0.38268343236508984
vn 1 0 0
vn 0 0.9238795325112866 0.38268343236508984
vn -1 0 0
vn 0 0.38268343236508984 -0.9238795325112866
vn 0 -0.38268343236508984 0.9238795325112866
usemtl m_b99a1d1e-dcf3-e281-0225-1442037cdd93
f 156/440/110 159/439/110 157/438/110 154/437/110
f 155/444/111 156/443/111 154/442/111 153/441/111
f 160/448/112 155/447/112 153/446/112 158/445/112
f 159/452/113 160/451/113 158/450/113 157/449/113
f 158/456/114 153/455/114 154/454/114 157/453/114
f 159/460/115 156/459/115 155/458/115 160/457/115
o cube
v 1.375 0.18384537544499585 -4.337603774128868
v 1.375 0.22442780305839014 -4.520659275463856
v 1.375 0.122826875 -4.35113125
v 1.375 0.16340930261339429 -4.534186751334987
v -1.375 0.22442780305839014 -4.520659275463856
v -1.375 0.18384537544499585 -4.337603774128868
v -1.375 0.16340930261339429 -4.534186751334987
v -1.375 0.122826875 -4.35113125
vt 0.1015625 0.18359375
vt 0.2734375 0.18359375
vt 0.2734375 0.1796875
vt 0.1015625 0.1796875
vt 0.1015625 0.18359375
vt 0.11328125 0.18359375
vt 0.11328125 0.1796875
vt 0.1015625 0.1796875
vt 0.1640625 0.625
vt 0.3359375 0.625
vt 0.3359375 0.62109375
vt 0.1640625 0.62109375
vt 0.1015625 0.18359375
vt 0.11328125 0.18359375
vt 0.11328125 0.1796875
vt 0.1015625 0.1796875
vt 0.4921875 0.3671875
vt 0.6640625 0.3671875
vt 0.6640625 0.37890625
vt 0.4921875 0.37890625
vt 0.828125 1
vt 1 1
vt 1 0.98828125
vt 0.828125 0.98828125
vn 0 0.21643961393810288 -0.9762960071199334
vn 1 0 0
vn 0 -0.21643961393810288 0.9762960071199334
vn -1 0 0
vn 0 0.9762960071199334 0.21643961393810288
vn 0 -0.9762960071199334 -0.21643961393810288
usemtl m_b99a1d1e-dcf3-e281-0225-1442037cdd93
f 164/464/116 167/463/116 165/462/116 162/461/116
f 163/468/117 164/467/117 162/466/117 161/465/117
f 168/472/118 163/471/118 161/470/118 166/469/118
f 167/476/119 168/475/119 166/474/119 165/473/119
f 166/480/120 161/479/120 162/478/120 165/477/120
f 167/484/121 164/483/121 163/482/121 168/481/121
o cube
v 1.375 0.0625 0.8125
v 1.375 0.0625 -3.0625
v 1.375 0 0.8125
v 1.375 0 -3.0625
v -1.375 0.0625 -3.0625
v -1.375 0.0625 0.8125
v -1.375 0 -3.0625
v -1.375 0 0.8125
vt 0.34375 0.625
vt 0.515625 0.625
vt 0.515625 0.62109375
vt 0.34375 0.62109375
vt 0.1015625 0.18359375
vt 0.34375 0.18359375
vt 0.34375 0.1796875
vt 0.1015625 0.1796875
vt 0.34375 0.625
vt 0.515625 0.625
vt 0.515625 0.62109375
vt 0.34375 0.62109375
vt 0.1015625 0.18359375
vt 0.34375 0.18359375
vt 0.34375 0.1796875
vt 0.1015625 0.1796875
vt 0.4921875 0.61328125
vt 0.6640625 0.61328125
vt 0.6640625 0.37109375
vt 0.4921875 0.37109375
vt 0.828125 1
vt 1 1
vt 1 0.7578125
vt 0.828125 0.7578125
vn 0 0 -1
vn 1 0 0
vn 0 0 1
vn -1 0 0
vn 0 1 0
vn 0 -1 0
usemtl m_b99a1d1e-dcf3-e281-0225-1442037cdd93
f 172/488/122 175/487/122 173/486/122 170/485/122
f 171/492/123 172/491/123 170/490/123 169/489/123
f 176/496/124 171/495/124 169/494/124 174/493/124
f 175/500/125 176/499/125 174/498/125 173/497/125
f 174/504/126 169/503/126 170/502/126 173/501/126
f 175/508/127 172/507/127 171/506/127 176/505/127
o cube
v 1.375 0.726145625 3.072784375
v 1.375 0.726145625 1.010284375
v 1.375 0.663645625 3.072784375
v 1.375 0.663645625 1.010284375
v -1.375 0.726145625 1.010284375
v -1.375 0.726145625 3.072784375
v -1.375 0.663645625 1.010284375
v -1.375 0.663645625 3.072784375
vt 0.1640625 0.625
vt 0.3359375 0.625
vt 0.3359375 0.62109375
vt 0.1640625 0.62109375
vt 0.1015625 0.18359375
vt 0.23046875 0.18359375
vt 0.23046875 0.1796875
vt 0.1015625 0.1796875
vt 0.1640625 0.625
vt 0.3359375 0.625
vt 0.3359375 0.62109375
vt 0.1640625 0.62109375
vt 0.1015625 0.18359375
vt 0.23046875 0.18359375
vt 0.23046875 0.1796875
vt 0.1015625 0.1796875
vt 0.4921875 0.5
vt 0.6640625 0.5
vt 0.6640625 0.37109375
vt 0.4921875 0.37109375
vt 0.828125 1
vt 1 1
vt 1 0.87109375
vt 0.828125 0.87109375
vn 0 0 -1
vn 1 0 0
vn 0 0 1
vn -1 0 0
vn 0 1 0
vn 0 -1 0
usemtl m_b99a1d1e-dcf3-e281-0225-1442037cdd93
f 180/512/128 183/511/128 181/510/128 178/509/128
f 179/516/129 180/515/129 178/514/129 177/513/129
f 184/520/130 179/519/130 177/518/130 182/517/130
f 183/524/131 184/523/131 182/522/131 181/521/131
f 182/528/132 177/527/132 178/526/132 181/525/132
f 183/532/133 180/531/133 179/530/133 184/529/133
o cube
v 1.375 0.080106948209688 3.307923223536397
v 1.375 0.726145625 3.072784375
v 1.375 0.05873068925183367 3.249192434737278
v 1.375 0.7047693660421457 3.014053586200881
v -1.375 0.726145625 3.072784375
v -1.375 0.080106948209688 3.307923223536397
v -1.375 0.7047693660421457 3.014053586200881
v -1.375 0.05873068925183367 3.249192434737278
vt 0.1640625 0.625
vt 0.3359375 0.625
vt 0.3359375 0.62109375
vt 0.1640625 0.62109375
vt 0.1015625 0.18359375
vt 0.14453125 0.18359375
vt 0.14453125 0.1796875
vt 0.1015625 0.1796875
vt 0.1640625 0.625
vt 0.3359375 0.625
vt 0.3359375 0.62109375
vt 0.1640625 0.62109375
vt 0.1015625 0.18359375
vt 0.14453125 0.18359375
vt 0.14453125 0.1796875
vt 0.1015625 0.1796875
vt 0.4921875 0.4453125
vt 0.6640625 0.4453125
vt 0.6640625 0.40234375
vt 0.4921875 0.40234375
vt 0.828125 1
vt 1 1
vt 1 0.95703125
vt 0.828125 0.95703125
vn 0 0.9396926207859083 -0.3420201433256689
vn 1 0 0
vn 0 -0.9396926207859083 0.3420201433256689
vn -1 0 0
vn 0 0.3420201433256689 0.9396926207859083
vn 0 -0.3420201433256689 -0.9396926207859083
usemtl m_b99a1d1e-dcf3-e281-0225-1442037cdd93
f 188/536/134 191/535/134 189/534/134 186/533/134
f 187/540/135 188/539/135 186/538/135 185/537/135
f 192/544/136 187/543/136 185/542/136 190/541/136
f 191/548/137 192/547/137 190/546/137 189/545/137
f 190/552/138 185/551/138 186/550/138 189/549/138
f 191/556/139 188/555/139 187/554/139 192/553/139
o cube
v 1.375 0.22993747206530687 4.488988638692954
v 1.375 0.12099279363073413 3.2437452660782715
v 1.375 0.16767530343457276 4.494435872614682
v 1.375 0.058730625000000036 3.2491925000000004
v -1.375 0.12099279363073413 3.2437452660782715
v -1.375 0.22993747206530687 4.488988638692954
v -1.375 0.058730625000000036 3.2491925000000004
v -1.375 0.16767530343457276 4.494435872614682
vt 0.1640625 0.625
vt 0.3359375 0.625
vt 0.3359375 0.62109375
vt 0.1640625 0.62109375
vt 0.1015625 0.18359375
vt 0.1796875 0.18359375
vt 0.1796875 0.1796875
vt 0.1015625 0.1796875
vt 0.1015625 0.18359375
vt 0.2734375 0.18359375
vt 0.2734375 0.1796875
vt 0.1015625 0.1796875
vt 0.1015625 0.18359375
vt 0.1796875 0.18359375
vt 0.1796875 0.1796875
vt 0.1015625 0.1796875
vt 0.4921875 0.4453125
vt 0.6640625 0.4453125
vt 0.6640625 0.3671875
vt 0.4921875 0.3671875
vt 0.828125 1
vt 1 1
vt 1 0.921875
vt 0.828125 0.921875
vn 0 -0.08715574274765818 -0.9961946980917455
vn 1 0 0
vn 0 0.08715574274765818 0.9961946980917455
vn -1 0 0
vn 0 0.9961946980917455 -0.08715574274765818
vn 0 -0.9961946980917455 0.08715574274765818
usemtl m_b99a1d1e-dcf3-e281-0225-1442037cdd93
f 196/560/140 199/559/140 197/558/140 194/557/140
f 195/564/141 196/563/141 194/562/141 193/561/141
f 200/568/142 195/567/142 193/566/142 198/565/142
f 199/572/143 200/571/143 198/570/143 197/569/143
f 198/576/144 193/575/144 194/574/144 197/573/144
f 199/580/145 196/579/145 195/578/145 200/577/145
o cube
v 1.3125 0.5907281494783235 -4.176493840363305
v 1.3125 1.0651358377480717 -4.478724870058393
v 1.3125 0.5907281494783235 -4.176493840363305
v 1.3125 1.0651358377480717 -4.478724870058393
v -1.3125 1.0651358377480717 -4.478724870058393
v -1.3125 0.5907281494783235 -4.176493840363305
v -1.3125 1.0651358377480717 -4.478724870058393
v -1.3125 0.5907281494783235 -4.176493840363305
vt 0.1640625 0.625
vt 0.3359375 0.625
vt 0.3359375 0.62109375
vt 0.1640625 0.62109375
vt 0.1015625 0.18359375
vt 0.1640625 0.18359375
vt 0.1640625 0.1796875
vt 0.1015625 0.1796875
vt 0.1640625 0.625
vt 0.3359375 0.625
vt 0.3359375 0.62109375
vt 0.1640625 0.62109375
vt 0.1015625 0.18359375
vt 0.1640625 0.18359375
vt 0.1640625 0.1796875
vt 0.1015625 0.1796875
vt 0.49609375 0.4453125
vt 0.66015625 0.4453125
vt 0.66015625 0.41015625
vt 0.49609375 0.41015625
vn 0 0.8433914458128856 -0.5372996083468238
vn 1 0 0
vn 0 -0.8433914458128856 0.5372996083468238
vn -1 0 0
vn 0 0.5372996083468238 0.8433914458128856
usemtl m_b99a1d1e-dcf3-e281-0225-1442037cdd93
f 204/584/146 207/583/146 205/582/146 202/581/146
f 203/588/147 204/587/147 202/586/147 201/585/147
usemtl none
f 208/592/148 203/591/148 201/590/148 206/589/148
usemtl m_b99a1d1e-dcf3-e281-0225-1442037cdd93
f 207/596/149 208/595/149 206/594/149 205/593/149
f 206/600/150 201/599/150 202/598/150 205/597/150
o cube
v 1.3125 0.726145625 3.885284375
v 1.3125 0.726145625 3.072784375
v 1.3125 0.726145625 3.885284375
v 1.3125 0.726145625 3.072784375
v -1.3125 0.726145625 3.072784375
v -1.3125 0.726145625 3.885284375
v -1.3125 0.726145625 3.072784375
v -1.3125 0.726145625 3.885284375
vt 0.1640625 0.625
vt 0.3359375 0.625
vt 0.3359375 0.62109375
vt 0.1640625 0.62109375
vt 0.1015625 0.18359375
vt 0.23046875 0.18359375
vt 0.23046875 0.1796875
vt 0.1015625 0.1796875
vt 0.1640625 0.625
vt 0.3359375 0.625
vt 0.3359375 0.62109375
vt 0.1640625 0.62109375
vt 0.1015625 0.18359375
vt 0.23046875 0.18359375
vt 0.23046875 0.1796875
vt 0.1015625 0.1796875
vt 0.49609375 0.5
vt 0.66015625 0.5
vt 0.66015625 0.44921875
vt 0.49609375 0.44921875
vn 0 0 -1
vn 1 0 0
vn 0 0 1
vn -1 0 0
vn 0 1 0
usemtl m_b99a1d1e-dcf3-e281-0225-1442037cdd93
f 212/604/151 215/603/151 213/602/151 210/601/151
f 211/608/152 212/607/152 210/606/152 209/605/152
f 216/612/153 211/611/153 209/610/153 214/609/153
f 215/616/154 216/615/154 214/614/154 213/613/154
f 214/620/155 209/619/155 210/618/155 213/617/155
o cube
v 1.3125 2.4136456250000005 3.8540343750000003
v 1.3125 0.7261456250000005 3.854034375
v 1.3125 2.4136456250000005 3.8540343750000003
v 1.3125 0.7261456250000005 3.854034375
v -1.3125 0.7261456250000005 3.854034375
v -1.3125 2.4136456250000005 3.8540343750000003
v -1.3125 0.7261456250000005 3.854034375
v -1.3125 2.4136456250000005 3.8540343750000003
vt 0.1640625 0.625
vt 0.3359375 0.625
vt 0.3359375 0.62109375
vt 0.1640625 0.62109375
vt 0.1015625 0.18359375
vt 0.23046875 0.18359375
vt 0.23046875 0.1796875
vt 0.1015625 0.1796875
vt 0.1640625 0.625
vt 0.3359375 0.625
vt 0.3359375 0.62109375
vt 0.1640625 0.62109375
vt 0.1015625 0.18359375
vt 0.23046875 0.18359375
vt 0.23046875 0.1796875
vt 0.1015625 0.1796875
vt 0.8359375 0.6015625
vt 1 0.6015625
vt 1 0.49609375
vt 0.8359375 0.49609375
vn 0 -1 -2.220446049250313e-16
vn 1 0 0
vn 0 1 2.220446049250313e-16
vn -1 0 0
vn 0 2.220446049250313e-16 -1
usemtl m_b99a1d1e-dcf3-e281-0225-1442037cdd93
f 220/624/156 223/623/156 221/622/156 218/621/156
f 219/628/157 220/627/157 218/626/157 217/625/157
f 224/632/158 219/631/158 217/630/158 222/629/158
f 223/636/159 224/635/159 222/634/159 221/633/159
f 222/640/160 217/639/160 218/638/160 221/637/160
o ceiling
v 1.3125 2.3698956250000007 -4.0912781250000005
v 1.3125 2.369895625 3.8540343750000003
v 1.3125 2.3698956250000007 -4.0912781250000005
v 1.3125 2.369895625 3.8540343750000003
v -1.3125 2.369895625 3.8540343750000003
v -1.3125 2.3698956250000007 -4.0912781250000005
v -1.3125 2.369895625 3.8540343750000003
v -1.3125 2.3698956250000007 -4.0912781250000005
vt 0.1640625 0.625
vt 0.3359375 0.625
vt 0.3359375 0.62109375
vt 0.1640625 0.62109375
vt 0.1015625 0.18359375
vt 0.23046875 0.18359375
vt 0.23046875 0.1796875
vt 0.1015625 0.1796875
vt 0.1640625 0.625
vt 0.3359375 0.625
vt 0.3359375 0.62109375
vt 0.1640625 0.62109375
vt 0.1015625 0.18359375
vt 0.23046875 0.18359375
vt 0.23046875 0.1796875
vt 0.1015625 0.1796875
vt 0.8359375 0.4951171875
vt 1 0.4951171875
vt 1 0
vt 0.8359375 0
vn 0 -1.2246467991473532e-16 1
vn 1 0 0
vn 0 1.2246467991473532e-16 -1
vn -1 0 0
vn 0 -1 -1.2246467991473532e-16
usemtl m_b99a1d1e-dcf3-e281-0225-1442037cdd93
f 228/644/161 231/643/161 229/642/161 226/641/161
f 227/648/162 228/647/162 226/646/162 225/645/162
f 232/652/163 227/651/163 225/650/163 230/649/163
f 231/656/164 232/655/164 230/654/164 229/653/164
f 230/660/165 225/659/165 226/658/165 229/657/165
o cube
v -0.6875 0.25 0.6875
v -0.6875 0.25 -2.6875
v -0.6875 0.0625 0.6875
v -0.6875 0.0625 -2.6875
v -1.125 0.25 -2.6875
v -1.125 0.25 0.6875
v -1.125 0.0625 -2.6875
v -1.125 0.0625 0.6875
vt 0.49609375 0.5859375
vt 0.49609375 0.61328125
vt 0.5078125 0.61328125
vt 0.5078125 0.5859375
vt 0.49609375 0.40234375
vt 0.49609375 0.61328125
vt 0.5078125 0.61328125
vt 0.5078125 0.40234375
vt 0.49609375 0.5859375
vt 0.49609375 0.61328125
vt 0.5078125 0.61328125
vt 0.5078125 0.5859375
vt 0.49609375 0.40234375
vt 0.49609375 0.61328125
vt 0.5078125 0.61328125
vt 0.5078125 0.40234375
vt 0.5078125 0.61328125
vt 0.53515625 0.61328125
vt 0.53515625 0.40234375
vt 0.5078125 0.40234375
vn 0 0 -1
vn 1 0 0
vn 0 0 1
vn -1 0 0
vn 0 1 0
usemtl m_b99a1d1e-dcf3-e281-0225-1442037cdd93
f 236/664/166 239/663/166 237/662/166 234/661/166
f 235/668/167 236/667/167 234/666/167 233/665/167
f 240/672/168 235/671/168 233/670/168 238/669/168
f 239/676/169 240/675/169 238/674/169 237/673/169
f 238/680/170 233/679/170 234/678/170 237/677/170
o cube
v 0.6875 0.25 -1.8125
v 0.6875000000000003 0.25 0.6875
v 0.6875 0.0625 -1.8125
v 0.6875000000000003 0.0625 0.6875
v 1.1250000000000004 0.25 0.6875
v 1.125 0.25 -1.8125
v 1.1250000000000004 0.0625 0.6875
v 1.125 0.0625 -1.8125
vt 0.49609375 0.5859375
vt 0.49609375 0.61328125
vt 0.5078125 0.61328125
vt 0.5078125 0.5859375
vt 0.49609375 0.45703125
vt 0.49609375 0.61328125
vt 0.5078125 0.61328125
vt 0.5078125 0.45703125
vt 0.49609375 0.5859375
vt 0.49609375 0.61328125
vt 0.5078125 0.61328125
vt 0.5078125 0.5859375
vt 0.49609375 0.45703125
vt 0.49609375 0.61328125
vt 0.5078125 0.61328125
vt 0.5078125 0.45703125
vt 0.5078125 0.61328125
vt 0.53515625 0.61328125
vt 0.53515625 0.45703125
vt 0.5078125 0.45703125
vn 1.2246467991473532e-16 0 1
vn -1 0 1.2246467991473532e-16
vn -1.2246467991473532e-16 0 -1
vn 1 0 -1.2246467991473532e-16
vn 0 1 0
usemtl m_b99a1d1e-dcf3-e281-0225-1442037cdd93
f 244/684/171 247/683/171 245/682/171 242/681/171
f 243/688/172 244/687/172 242/686/172 241/685/172
f 248/692/173 243/691/173 241/690/173 246/689/173
f 247/696/174 248/695/174 246/694/174 245/693/174
f 246/700/175 241/699/175 242/698/175 245/697/175
o cube
v 1.125 0.375 -1.8125
v 0.3750000000000001 0.375 -1.8125000000000002
v 1.125 0.25 -1.8125
v 0.3750000000000001 0.25 -1.8125000000000002
v 0.3749999999999999 0.375 -1.0625000000000002
v 1.125 0.375 -1.0625
v 0.3749999999999999 0.25 -1.0625000000000002
v 1.125 0.25 -1.0625
vt 0.4296875 0.48828125
vt 0.4765625 0.48828125
vt 0.4765625 0.49609375
vt 0.4296875 0.49609375
vt 0.4921875 0.48828125
vt 0.4453125 0.48828125
vt 0.4453125 0.49609375
vt 0.4921875 0.49609375
vt 0.4296875 0.5546875
vt 0.4765625 0.5546875
vt 0.4765625 0.546875
vt 0.4296875 0.546875
vt 0.4453125 0.48828125
vt 0.4921875 0.48828125
vt 0.4921875 0.49609375
vt 0.4453125 0.49609375
vt 0.4453125 0.36328125
vt 0.4921875 0.36328125
vt 0.4921875 0.41015625
vt 0.4453125 0.41015625
vt 0.4453125 0.42578125
vt 0.4921875 0.42578125
vt 0.4921875 0.47265625
vt 0.4453125 0.47265625
vn -1 0 -2.220446049250313e-16
vn 2.220446049250313e-16 0 -1
vn 1 0 2.220446049250313e-16
vn -2.220446049250313e-16 0 1
vn 0 1 0
vn 0 -1 0
usemtl m_b99a1d1e-dcf3-e281-0225-1442037cdd93
f 252/704/176 255/703/176 253/702/176 250/701/176
f 251/708/177 252/707/177 250/706/177 249/705/177
f 256/712/178 251/711/178 249/710/178 254/709/178
f 255/716/179 256/715/179 254/714/179 253/713/179
f 254/720/180 249/719/180 250/718/180 253/717/180
f 255/724/181 252/723/181 251/722/181 256/721/181
o cube
v 1.125 0.25 -1.8125
v 1.2986481776669303 1.2348077530122081 -1.8125
v 1.001899030873474 0.27170602220836626 -1.8125
v 1.1755472085404044 1.2565137752205744 -1.8125
v 1.2986481776669303 1.2348077530122081 -1.0625
v 1.125 0.25 -1.0625
v 1.1755472085404042 1.2565137752205744 -1.0625
v 1.0018990308734739 0.27170602220836626 -1.0625
vt 0.4296875 0.49609375
vt 0.4765625 0.49609375
vt 0.4765625 0.48828125
vt 0.4296875 0.48828125
vt 0.4921875 0.49609375
vt 0.4296875 0.49609375
vt 0.4296875 0.48828125
vt 0.4921875 0.48828125
vt 0.4296875 0.5546875
vt 0.4765625 0.5546875
vt 0.4765625 0.546875
vt 0.4296875 0.546875
vt 0.4296875 0.49609375
vt 0.4921875 0.49609375
vt 0.4921875 0.48828125
vt 0.4296875 0.48828125
vt 0.4453125 0.48828125
vt 0.4921875 0.48828125
vt 0.4921875 0.42578125
vt 0.4453125 0.42578125
vt 0.4453125 0.42578125
vt 0.4921875 0.42578125
vt 0.4921875 0.36328125
vt 0.4453125 0.36328125
vn 0.1736481776669303 0.9848077530122081 3.8557641006005184e-17
vn 2.220446049250313e-16 0 -1
vn -0.1736481776669303 -0.9848077530122081 -3.8557641006005184e-17
vn -2.220446049250313e-16 0 1
vn 0.9848077530122081 -0.1736481776669303 2.1867124844470357e-16
vn -0.9848077530122081 0.1736481776669303 -2.1867124844470357e-16
usemtl m_b99a1d1e-dcf3-e281-0225-1442037cdd93
f 260/728/182 263/727/182 261/726/182 258/725/182
f 259/732/183 260/731/183 258/730/183 257/729/183
f 264/736/184 259/735/184 257/734/184 262/733/184
f 263/740/185 264/739/185 262/738/185 261/737/185
f 262/744/186 257/743/186 258/742/186 261/741/186
f 263/748/187 260/747/187 259/746/187 264/745/187
o cube
v -1.125 0.375 -1.0625
v -0.3749999999999999 0.375 -1.0625000000000002
v -1.125 0.25 -1.0625
v -0.3749999999999999 0.25 -1.0625000000000002
v -0.3750000000000001 0.375 -1.8125000000000002
v -1.125 0.375 -1.8125
v -0.3750000000000001 0.25 -1.8125000000000002
v -1.125 0.25 -1.8125
vt 0.4296875 0.48828125
vt 0.4765625 0.48828125
vt 0.4765625 0.49609375
vt 0.4296875 0.49609375
vt 0.4921875 0.48828125
vt 0.4453125 0.48828125
vt 0.4453125 0.49609375
vt 0.4921875 0.49609375
vt 0.4296875 0.5546875
vt 0.4765625 0.5546875
vt 0.4765625 0.546875
vt 0.4296875 0.546875
vt 0.4453125 0.48828125
vt 0.4921875 0.48828125
vt 0.4921875 0.49609375
vt 0.4453125 0.49609375
vt 0.4453125 0.36328125
vt 0.4921875 0.36328125
vt 0.4921875 0.41015625
vt 0.4453125 0.41015625
vt 0.4453125 0.42578125
vt 0.4921875 0.42578125
vt 0.4921875 0.47265625
vt 0.4453125 0.47265625
vn 1 0 -2.220446049250313e-16
vn 2.220446049250313e-16 0 1
vn -1 0 2.220446049250313e-16
vn -2.220446049250313e-16 0 -1
vn 0 1 0
vn 0 -1 0
usemtl m_b99a1d1e-dcf3-e281-0225-1442037cdd93
f 268/752/188 271/751/188 269/750/188 266/749/188
f 267/756/189 268/755/189 266/754/189 265/753/189
f 272/760/190 267/759/190 265/758/190 270/757/190
f 271/764/191 272/763/191 270/762/191 269/761/191
f 270/768/192 265/767/192 266/766/192 269/765/192
f 271/772/193 268/771/193 267/770/193 272/769/193
o cube
v -1.125 0.25 -1.0625
v -1.2986481776669303 1.2348077530122081 -1.0625
v -1.0018990308734739 0.27170602220836626 -1.0625
v -1.1755472085404042 1.2565137752205744 -1.0625
v -1.2986481776669303 1.2348077530122081 -1.8125
v -1.125 0.25 -1.8125
v -1.1755472085404044 1.2565137752205744 -1.8125
v -1.001899030873474 0.27170602220836626 -1.8125
vt 0.4296875 0.49609375
vt 0.4765625 0.49609375
vt 0.4765625 0.48828125
vt 0.4296875 0.48828125
vt 0.4921875 0.49609375
vt 0.4296875 0.49609375
vt 0.4296875 0.48828125
vt 0.4921875 0.48828125
vt 0.4296875 0.5546875
vt 0.4765625 0.5546875
vt 0.4765625 0.546875
vt 0.4296875 0.546875
vt 0.4296875 0.49609375
vt 0.4921875 0.49609375
vt 0.4921875 0.48828125
vt 0.4296875 0.48828125
vt 0.4453125 0.48828125
vt 0.4921875 0.48828125
vt 0.4921875 0.42578125
vt 0.4453125 0.42578125
vt 0.4453125 0.42578125
vt 0.4921875 0.42578125
vt 0.4921875 0.36328125
vt 0.4453125 0.36328125
vn -0.1736481776669303 0.9848077530122081 3.8557641006005184e-17
vn 2.220446049250313e-16 0 1
vn 0.1736481776669303 -0.9848077530122081 -3.8557641006005184e-17
vn -2.220446049250313e-16 0 -1
vn -0.9848077530122081 -0.1736481776669303 2.1867124844470357e-16
vn 0.9848077530122081 0.1736481776669303 -2.1867124844470357e-16
usemtl m_b99a1d1e-dcf3-e281-0225-1442037cdd93
f 276/776/194 279/775/194 277/774/194 274/773/194
f 275/780/195 276/779/195 274/778/195 273/777/195
f 280/784/196 275/783/196 273/782/196 278/781/196
f 279/788/197 280/787/197 278/786/197 277/785/197
f 278/792/198 273/791/198 274/790/198 277/789/198
f 279/796/199 276/795/199 275/794/199 280/793/199
o cube
v -1.125 0.375 -1.9375
v -0.3749999999999999 0.375 -1.9375000000000002
v -1.125 0.25 -1.9375
v -0.3749999999999999 0.25 -1.9375000000000002
v -0.3750000000000001 0.375 -2.6875
v -1.125 0.375 -2.6875
v -0.3750000000000001 0.25 -2.6875
v -1.125 0.25 -2.6875
vt 0.4296875 0.48828125
vt 0.4765625 0.48828125
vt 0.4765625 0.49609375
vt 0.4296875 0.49609375
vt 0.4921875 0.48828125
vt 0.4453125 0.48828125
vt 0.4453125 0.49609375
vt 0.4921875 0.49609375
vt 0.4296875 0.5546875
vt 0.4765625 0.5546875
vt 0.4765625 0.546875
vt 0.4296875 0.546875
vt 0.4453125 0.48828125
vt 0.4921875 0.48828125
vt 0.4921875 0.49609375
vt 0.4453125 0.49609375
vt 0.4453125 0.36328125
vt 0.4921875 0.36328125
vt 0.4921875 0.41015625
vt 0.4453125 0.41015625
vt 0.4453125 0.42578125
vt 0.4921875 0.42578125
vt 0.4921875 0.47265625
vt 0.4453125 0.47265625
vn 1 0 -2.220446049250313e-16
vn 2.220446049250313e-16 0 1
vn -1 0 2.220446049250313e-16
vn -2.220446049250313e-16 0 -1
vn 0 1 0
vn 0 -1 0
usemtl m_b99a1d1e-dcf3-e281-0225-1442037cdd93
f 284/800/200 287/799/200 285/798/200 282/797/200
f 283/804/201 284/803/201 282/802/201 281/801/201
f 288/808/202 283/807/202 281/806/202 286/805/202
f 287/812/203 288/811/203 286/810/203 285/809/203
f 286/816/204 281/815/204 282/814/204 285/813/204
f 287/820/205 284/819/205 283/818/205 288/817/205
o cube
v -1.125 0.25 -1.9375
v -1.2986481776669303 1.2348077530122081 -1.9375
v -1.0018990308734739 0.27170602220836626 -1.9375
v -1.1755472085404042 1.2565137752205744 -1.9375
v -1.2986481776669303 1.2348077530122081 -2.6875
v -1.125 0.25 -2.6875
v -1.1755472085404044 1.2565137752205744 -2.6875
v -1.001899030873474 0.27170602220836626 -2.6875
vt 0.4296875 0.49609375
vt 0.4765625 0.49609375
vt 0.4765625 0.48828125
vt 0.4296875 0.48828125
vt 0.4921875 0.49609375
vt 0.4296875 0.49609375
vt 0.4296875 0.48828125
vt 0.4921875 0.48828125
vt 0.4296875 0.5546875
vt 0.4765625 0.5546875
vt 0.4765625 0.546875
vt 0.4296875 0.546875
vt 0.4296875 0.49609375
vt 0.4921875 0.49609375
vt 0.4921875 0.48828125
vt 0.4296875 0.48828125
vt 0.4453125 0.48828125
vt 0.4921875 0.48828125
vt 0.4921875 0.42578125
vt 0.4453125 0.42578125
vt 0.4453125 0.42578125
vt 0.4921875 0.42578125
vt 0.4921875 0.36328125
vt 0.4453125 0.36328125
vn -0.1736481776669303 0.9848077530122081 3.8557641006005184e-17
vn 2.220446049250313e-16 0 1
vn 0.1736481776669303 -0.9848077530122081 -3.8557641006005184e-17
vn -2.220446049250313e-16 0 -1
vn -0.9848077530122081 -0.1736481776669303 2.1867124844470357e-16
vn 0.9848077530122081 0.1736481776669303 -2.1867124844470357e-16
usemtl m_b99a1d1e-dcf3-e281-0225-1442037cdd93
f 292/824/206 295/823/206 293/822/206 290/821/206
f 291/828/207 292/827/207 290/826/207 289/825/207
f 296/832/208 291/831/208 289/830/208 294/829/208
f 295/836/209 296/835/209 294/834/209 293/833/209
f 294/840/210 289/839/210 290/838/210 293/837/210
f 295/844/211 292/843/211 291/842/211 296/841/211
o cube
v 1.125 0.375 -0.9375
v 0.3750000000000001 0.375 -0.9375000000000002
v 1.125 0.25 -0.9375
v 0.3750000000000001 0.25 -0.9375000000000002
v 0.3749999999999999 0.375 -0.18750000000000017
v 1.125 0.375 -0.1875
v 0.3749999999999999 0.25 -0.18750000000000017
v 1.125 0.25 -0.1875
vt 0.4296875 0.48828125
vt 0.4765625 0.48828125
vt 0.4765625 0.49609375
vt 0.4296875 0.49609375
vt 0.4921875 0.48828125
vt 0.4453125 0.48828125
vt 0.4453125 0.49609375
vt 0.4921875 0.49609375
vt 0.4296875 0.5546875
vt 0.4765625 0.5546875
vt 0.4765625 0.546875
vt 0.4296875 0.546875
vt 0.4453125 0.48828125
vt 0.4921875 0.48828125
vt 0.4921875 0.49609375
vt 0.4453125 0.49609375
vt 0.4453125 0.36328125
vt 0.4921875 0.36328125
vt 0.4921875 0.41015625
vt 0.4453125 0.41015625
vt 0.4453125 0.42578125
vt 0.4921875 0.42578125
vt 0.4921875 0.47265625
vt 0.4453125 0.47265625
vn -1 0 -2.220446049250313e-16
vn 2.220446049250313e-16 0 -1
vn 1 0 2.220446049250313e-16
vn -2.220446049250313e-16 0 1
vn 0 1 0
vn 0 -1 0
usemtl m_b99a1d1e-dcf3-e281-0225-1442037cdd93
f 300/848/212 303/847/212 301/846/212 298/845/212
f 299/852/213 300/851/213 298/850/213 297/849/213
f 304/856/214 299/855/214 297/854/214 302/853/214
f 303/860/215 304/859/215 302/858/215 301/857/215
f 302/864/216 297/863/216 298/862/216 301/861/216
f 303/868/217 300/867/217 299/866/217 304/865/217
o cube
v 1.125 0.25 -0.9375
v 1.2986481776669303 1.2348077530122081 -0.9375
v 1.001899030873474 0.27170602220836626 -0.9375
v 1.1755472085404044 1.2565137752205744 -0.9375
v 1.2986481776669303 1.2348077530122081 -0.18749999999999994
v 1.125 0.25 -0.1875
v 1.1755472085404042 1.2565137752205744 -0.18749999999999994
v 1.0018990308734739 0.27170602220836626 -0.1875
vt 0.4296875 0.49609375
vt 0.4765625 0.49609375
vt 0.4765625 0.48828125
vt 0.4296875 0.48828125
vt 0.4921875 0.49609375
vt 0.4296875 0.49609375
vt 0.4296875 0.48828125
vt 0.4921875 0.48828125
vt 0.4296875 0.5546875
vt 0.4765625 0.5546875
vt 0.4765625 0.546875
vt 0.4296875 0.546875
vt 0.4296875 0.49609375
vt 0.4921875 0.49609375
vt 0.4921875 0.48828125
vt 0.4296875 0.48828125
vt 0.4453125 0.48828125
vt 0.4921875 0.48828125
vt 0.4921875 0.42578125
vt 0.4453125 0.42578125
vt 0.4453125 0.42578125
vt 0.4921875 0.42578125
vt 0.4921875 0.36328125
vt 0.4453125 0.36328125
vn 0.1736481776669303 0.9848077530122081 3.8557641006005184e-17
vn 2.220446049250313e-16 0 -1
vn -0.1736481776669303 -0.9848077530122081 -3.8557641006005184e-17
vn -2.220446049250313e-16 0 1
vn 0.9848077530122081 -0.1736481776669303 2.1867124844470357e-16
vn -0.9848077530122081 0.1736481776669303 -2.1867124844470357e-16
usemtl m_b99a1d1e-dcf3-e281-0225-1442037cdd93
f 308/872/218 311/871/218 309/870/218 306/869/218
f 307/876/219 308/875/219 306/874/219 305/873/219
f 312/880/220 307/879/220 305/878/220 310/877/220
f 311/884/221 312/883/221 310/882/221 309/881/221
f 310/888/222 305/887/222 306/886/222 309/885/222
f 311/892/223 308/891/223 307/890/223 312/889/223
o cube
v -1.125 0.375 -0.1875
v -0.3749999999999999 0.375 -0.18750000000000017
v -1.125 0.25 -0.1875
v -0.3749999999999999 0.25 -0.18750000000000017
v -0.3750000000000001 0.375 -0.9375000000000002
v -1.125 0.375 -0.9375
v -0.3750000000000001 0.25 -0.9375000000000002
v -1.125 0.25 -0.9375
vt 0.4296875 0.48828125
vt 0.4765625 0.48828125
vt 0.4765625 0.49609375
vt 0.4296875 0.49609375
vt 0.4921875 0.48828125
vt 0.4453125 0.48828125
vt 0.4453125 0.49609375
vt 0.4921875 0.49609375
vt 0.4296875 0.5546875
vt 0.4765625 0.5546875
vt 0.4765625 0.546875
vt 0.4296875 0.546875
vt 0.4453125 0.48828125
vt 0.4921875 0.48828125
vt 0.4921875 0.49609375
vt 0.4453125 0.49609375
vt 0.4453125 0.36328125
vt 0.4921875 0.36328125
vt 0.4921875 0.41015625
vt 0.4453125 0.41015625
vt 0.4453125 0.42578125
vt 0.4921875 0.42578125
vt 0.4921875 0.47265625
vt 0.4453125 0.47265625
vn 1 0 -2.220446049250313e-16
vn 2.220446049250313e-16 0 1
vn -1 0 2.220446049250313e-16
vn -2.220446049250313e-16 0 -1
vn 0 1 0
vn 0 -1 0
usemtl m_b99a1d1e-dcf3-e281-0225-1442037cdd93
f 316/896/224 319/895/224 317/894/224 314/893/224
f 315/900/225 316/899/225 314/898/225 313/897/225
f 320/904/226 315/903/226 313/902/226 318/901/226
f 319/908/227 320/907/227 318/906/227 317/905/227
f 318/912/228 313/911/228 314/910/228 317/909/228
f 319/916/229 316/915/229 315/914/229 320/913/229
o cube
v -1.125 0.25 -0.1875
v -1.2986481776669303 1.2348077530122081 -0.18749999999999994
v -1.0018990308734739 0.27170602220836626 -0.1875
v -1.1755472085404042 1.2565137752205744 -0.18749999999999994
v -1.2986481776669303 1.2348077530122081 -0.9375
v -1.125 0.25 -0.9375
v -1.1755472085404044 1.2565137752205744 -0.9375
v -1.001899030873474 0.27170602220836626 -0.9375
vt 0.4296875 0.49609375
vt 0.4765625 0.49609375
vt 0.4765625 0.48828125
vt 0.4296875 0.48828125
vt 0.4921875 0.49609375
vt 0.4296875 0.49609375
vt 0.4296875 0.48828125
vt 0.4921875 0.48828125
vt 0.4296875 0.5546875
vt 0.4765625 0.5546875
vt 0.4765625 0.546875
vt 0.4296875 0.546875
vt 0.4296875 0.49609375
vt 0.4921875 0.49609375
vt 0.4921875 0.48828125
vt 0.4296875 0.48828125
vt 0.4453125 0.48828125
vt 0.4921875 0.48828125
vt 0.4921875 0.42578125
vt 0.4453125 0.42578125
vt 0.4453125 0.42578125
vt 0.4921875 0.42578125
vt 0.4921875 0.36328125
vt 0.4453125 0.36328125
vn -0.1736481776669303 0.9848077530122081 3.8557641006005184e-17
vn 2.220446049250313e-16 0 1
vn 0.1736481776669303 -0.9848077530122081 -3.8557641006005184e-17
vn -2.220446049250313e-16 0 -1
vn -0.9848077530122081 -0.1736481776669303 2.1867124844470357e-16
vn 0.9848077530122081 0.1736481776669303 -2.1867124844470357e-16
usemtl m_b99a1d1e-dcf3-e281-0225-1442037cdd93
f 324/920/230 327/919/230 325/918/230 322/917/230
f 323/924/231 324/923/231 322/922/231 321/921/231
f 328/928/232 323/927/232 321/926/232 326/925/232
f 327/932/233 328/931/233 326/930/233 325/929/233
f 326/936/234 321/935/234 322/934/234 325/933/234
f 327/940/235 324/939/235 323/938/235 328/937/235
o cube
v 1.125 0.375 -0.0625
v 0.3750000000000001 0.375 -0.06250000000000017
v 1.125 0.25 -0.0625
v 0.3750000000000001 0.25 -0.06250000000000017
v 0.3749999999999999 0.375 0.6874999999999998
v 1.125 0.375 0.6875
v 0.3749999999999999 0.25 0.6874999999999998
v 1.125 0.25 0.6875
vt 0.4296875 0.48828125
vt 0.4765625 0.48828125
vt 0.4765625 0.49609375
vt 0.4296875 0.49609375
vt 0.4921875 0.48828125
vt 0.4453125 0.48828125
vt 0.4453125 0.49609375
vt 0.4921875 0.49609375
vt 0.4296875 0.5546875
vt 0.4765625 0.5546875
vt 0.4765625 0.546875
vt 0.4296875 0.546875
vt 0.4453125 0.48828125
vt 0.4921875 0.48828125
vt 0.4921875 0.49609375
vt 0.4453125 0.49609375
vt 0.4453125 0.36328125
vt 0.4921875 0.36328125
vt 0.4921875 0.41015625
vt 0.4453125 0.41015625
vt 0.4453125 0.42578125
vt 0.4921875 0.42578125
vt 0.4921875 0.47265625
vt 0.4453125 0.47265625
vn -1 0 -2.220446049250313e-16
vn 2.220446049250313e-16 0 -1
vn 1 0 2.220446049250313e-16
vn -2.220446049250313e-16 0 1
vn 0 1 0
vn 0 -1 0
usemtl m_b99a1d1e-dcf3-e281-0225-1442037cdd93
f 332/944/236 335/943/236 333/942/236 330/941/236
f 331/948/237 332/947/237 330/946/237 329/945/237
f 336/952/238 331/951/238 329/950/238 334/949/238
f 335/956/239 336/955/239 334/954/239 333/953/239
f 334/960/240 329/959/240 330/958/240 333/957/240
f 335/964/241 332/963/241 331/962/241 336/961/241
o cube
v 1.125 0.25 -0.0625
v 1.2986481776669303 1.2348077530122081 -0.062499999999999944
v 1.001899030873474 0.27170602220836626 -0.0625
v 1.1755472085404044 1.2565137752205744 -0.062499999999999944
v 1.2986481776669303 1.2348077530122081 0.6875
v 1.125 0.25 0.6875
v 1.1755472085404042 1.2565137752205744 0.6875
v 1.0018990308734739 0.27170602220836626 0.6875
vt 0.4296875 0.49609375
vt 0.4765625 0.49609375
vt 0.4765625 0.48828125
vt 0.4296875 0.48828125
vt 0.4921875 0.49609375
vt 0.4296875 0.49609375
vt 0.4296875 0.48828125
vt 0.4921875 0.48828125
vt 0.4296875 0.5546875
vt 0.4765625 0.5546875
vt 0.4765625 0.546875
vt 0.4296875 0.546875
vt 0.4296875 0.49609375
vt 0.4921875 0.49609375
vt 0.4921875 0.48828125
vt 0.4296875 0.48828125
vt 0.4453125 0.48828125
vt 0.4921875 0.48828125
vt 0.4921875 0.42578125
vt 0.4453125 0.42578125
vt 0.4453125 0.42578125
vt 0.4921875 0.42578125
vt 0.4921875 0.36328125
vt 0.4453125 0.36328125
vn 0.1736481776669303 0.9848077530122081 3.8557641006005184e-17
vn 2.220446049250313e-16 0 -1
vn -0.1736481776669303 -0.9848077530122081 -3.8557641006005184e-17
vn -2.220446049250313e-16 0 1
vn 0.9848077530122081 -0.1736481776669303 2.1867124844470357e-16
vn -0.9848077530122081 0.1736481776669303 -2.1867124844470357e-16
usemtl m_b99a1d1e-dcf3-e281-0225-1442037cdd93
f 340/968/242 343/967/242 341/966/242 338/965/242
f 339/972/243 340/971/243 338/970/243 337/969/243
f 344/976/244 339/975/244 337/974/244 342/973/244
f 343/980/245 344/979/245 342/978/245 341/977/245
f 342/984/246 337/983/246 338/982/246 341/981/246
f 343/988/247 340/987/247 339/986/247 344/985/247
o cube
v -1.125 0.375 0.6875
v -0.3749999999999999 0.375 0.6874999999999998
v -1.125 0.25 0.6875
v -0.3749999999999999 0.25 0.6874999999999998
v -0.3750000000000001 0.375 -0.06250000000000017
v -1.125 0.375 -0.0625
v -0.3750000000000001 0.25 -0.06250000000000017
v -1.125 0.25 -0.0625
vt 0.4296875 0.48828125
vt 0.4765625 0.48828125
vt 0.4765625 0.49609375
vt 0.4296875 0.49609375
vt 0.4921875 0.48828125
vt 0.4453125 0.48828125
vt 0.4453125 0.49609375
vt 0.4921875 0.49609375
vt 0.4296875 0.5546875
vt 0.4765625 0.5546875
vt 0.4765625 0.546875
vt 0.4296875 0.546875
vt 0.4453125 0.48828125
vt 0.4921875 0.48828125
vt 0.4921875 0.49609375
vt 0.4453125 0.49609375
vt 0.4453125 0.36328125
vt 0.4921875 0.36328125
vt 0.4921875 0.41015625
vt 0.4453125 0.41015625
vt 0.4453125 0.42578125
vt 0.4921875 0.42578125
vt 0.4921875 0.47265625
vt 0.4453125 0.47265625
vn 1 0 -2.220446049250313e-16
vn 2.220446049250313e-16 0 1
vn -1 0 2.220446049250313e-16
vn -2.220446049250313e-16 0 -1
vn 0 1 0
vn 0 -1 0
usemtl m_b99a1d1e-dcf3-e281-0225-1442037cdd93
f 348/992/248 351/991/248 349/990/248 346/989/248
f 347/996/249 348/995/249 346/994/249 345/993/249
f 352/1000/250 347/999/250 345/998/250 350/997/250
f 351/1004/251 352/1003/251 350/1002/251 349/1001/251
f 350/1008/252 345/1007/252 346/1006/252 349/1005/252
f 351/1012/253 348/1011/253 347/1010/253 352/1009/253
o cube
v -1.125 0.25 0.6875
v -1.2986481776669303 1.2348077530122081 0.6875
v -1.0018990308734739 0.27170602220836626 0.6875
v -1.1755472085404042 1.2565137752205744 0.6875
v -1.2986481776669303 1.2348077530122081 -0.062499999999999944
v -1.125 0.25 -0.0625
v -1.1755472085404044 1.2565137752205744 -0.062499999999999944
v -1.001899030873474 0.27170602220836626 -0.0625
vt 0.4296875 0.49609375
vt 0.4765625 0.49609375
vt 0.4765625 0.48828125
vt 0.4296875 0.48828125
vt 0.4921875 0.49609375
vt 0.4296875 0.49609375
vt 0.4296875 0.48828125
vt 0.4921875 0.48828125
vt 0.4296875 0.5546875
vt 0.4765625 0.5546875
vt 0.4765625 0.546875
vt 0.4296875 0.546875
vt 0.4296875 0.49609375
vt 0.4921875 0.49609375
vt 0.4921875 0.48828125
vt 0.4296875 0.48828125
vt 0.4453125 0.48828125
vt 0.4921875 0.48828125
vt 0.4921875 0.42578125
vt 0.4453125 0.42578125
vt 0.4453125 0.42578125
vt 0.4921875 0.42578125
vt 0.4921875 0.36328125
vt 0.4453125 0.36328125
vn -0.1736481776669303 0.9848077530122081 3.8557641006005184e-17
vn 2.220446049250313e-16 0 1
vn 0.1736481776669303 -0.9848077530122081 -3.8557641006005184e-17
vn -2.220446049250313e-16 0 -1
vn -0.9848077530122081 -0.1736481776669303 2.1867124844470357e-16
vn 0.9848077530122081 0.1736481776669303 -2.1867124844470357e-16
usemtl m_b99a1d1e-dcf3-e281-0225-1442037cdd93
f 356/1016/254 359/1015/254 357/1014/254 354/1013/254
f 355/1020/255 356/1019/255 354/1018/255 353/1017/255
f 360/1024/256 355/1023/256 353/1022/256 358/1021/256
f 359/1028/257 360/1027/257 358/1026/257 357/1025/257
f 358/1032/258 353/1031/258 354/1030/258 357/1029/258
f 359/1036/259 356/1035/259 355/1034/259 360/1033/259
o cube
v -0.5 1 1.6875
v -0.5 1 0.9375
v -0.5 0.875 1.6875
v -0.5 0.875 0.9375
v -1.25 1 0.9375
v -1.25 1 1.6875
v -1.25 0.875 0.9375
v -1.25 0.875 1.6875
vt 0.4296875 0.48828125
vt 0.4765625 0.48828125
vt 0.4765625 0.49609375
vt 0.4296875 0.49609375
vt 0.4921875 0.48828125
vt 0.4453125 0.48828125
vt 0.4453125 0.49609375
vt 0.4921875 0.49609375
vt 0.4296875 0.5546875
vt 0.4765625 0.5546875
vt 0.4765625 0.546875
vt 0.4296875 0.546875
vt 0.4453125 0.48828125
vt 0.4921875 0.48828125
vt 0.4921875 0.49609375
vt 0.4453125 0.49609375
vt 0.4453125 0.36328125
vt 0.4921875 0.36328125
vt 0.4921875 0.41015625
vt 0.4453125 0.41015625
vt 0.4453125 0.42578125
vt 0.4921875 0.42578125
vt 0.4921875 0.47265625
vt 0.4453125 0.47265625
vn 0 0 -1
vn 1 0 0
vn 0 0 1
vn -1 0 0
vn 0 1 0
vn 0 -1 0
usemtl m_b99a1d1e-dcf3-e281-0225-1442037cdd93
f 364/1040/260 367/1039/260 365/1038/260 362/1037/260
f 363/1044/261 364/1043/261 362/1042/261 361/1041/261
f 368/1048/262 363/1047/262 361/1046/262 366/1045/262
f 367/1052/263 368/1051/263 366/1050/263 365/1049/263
f 366/1056/264 361/1055/264 362/1054/264 365/1053/264
f 367/1060/265 364/1059/265 363/1058/265 368/1057/265
o cube
v -0.5 0.875 1.6875
v -0.5 1.8598077530122081 1.8611481776669303
v -0.5 0.8967060222083663 1.5643990308734739
v -0.5 1.8815137752205744 1.7380472085404044
v -1.25 1.8598077530122081 1.8611481776669303
v -1.25 0.875 1.6875
v -1.25 1.8815137752205744 1.7380472085404044
v -1.25 0.8967060222083663 1.5643990308734739
vt 0.4296875 0.49609375
vt 0.4765625 0.49609375
vt 0.4765625 0.48828125
vt 0.4296875 0.48828125
vt 0.4921875 0.49609375
vt 0.4296875 0.49609375
vt 0.4296875 0.48828125
vt 0.4921875 0.48828125
vt 0.4296875 0.5546875
vt 0.4765625 0.5546875
vt 0.4765625 0.546875
vt 0.4296875 0.546875
vt 0.4296875 0.49609375
vt 0.4921875 0.49609375
vt 0.4921875 0.48828125
vt 0.4296875 0.48828125
vt 0.4453125 0.48828125
vt 0.4921875 0.48828125
vt 0.4921875 0.42578125
vt 0.4453125 0.42578125
vt 0.4453125 0.42578125
vt 0.4921875 0.42578125
vt 0.4921875 0.36328125
vt 0.4453125 0.36328125
vn 0 0.9848077530122081 0.1736481776669303
vn 1 0 0
vn 0 -0.9848077530122081 -0.1736481776669303
vn -1 0 0
vn 0 -0.1736481776669303 0.9848077530122081
vn 0 0.1736481776669303 -0.9848077530122081
usemtl m_b99a1d1e-dcf3-e281-0225-1442037cdd93
f 372/1064/266 375/1063/266 373/1062/266 370/1061/266
f 371/1068/267 372/1067/267 370/1066/267 369/1065/267
f 376/1072/268 371/1071/268 369/1070/268 374/1069/268
f 375/1076/269 376/1075/269 374/1074/269 373/1073/269
f 374/1080/270 369/1079/270 370/1078/270 373/1077/270
f 375/1084/271 372/1083/271 371/1082/271 376/1081/271
o cube
v -0.5625 0.875 1.6875
v -0.5625 0.875 1.125
v -0.5625 0.75 1.6875
v -0.5625 0.75 1.125
v -1.1875 0.875 1.125
v -1.1875 0.875 1.6875
v -1.1875 0.75 1.125
v -1.1875 0.75 1.6875
vt 0.40625 0.48828125
vt 0.4453125 0.48828125
vt 0.4453125 0.48046875
vt 0.40625 0.48046875
vt 0.40625 0.48828125
vt 0.44140625 0.48828125
vt 0.44140625 0.48046875
vt 0.40625 0.48046875
vt 0.40625 0.48828125
vt 0.4453125 0.48828125
vt 0.4453125 0.48046875
vt 0.40625 0.48046875
vt 0.40625 0.48828125
vt 0.44140625 0.48828125
vt 0.44140625 0.48046875
vt 0.40625 0.48046875
vt 0.40625 0.48046875
vt 0.4453125 0.48046875
vt 0.4453125 0.4453125
vt 0.40625 0.4453125
vt 0.40625 0.48046875
vt 0.4453125 0.48046875
vt 0.4453125 0.4453125
vt 0.40625 0.4453125
vn 0 0 -1
vn 1 0 0
vn 0 0 1
vn -1 0 0
vn 0 1 0
vn 0 -1 0
usemtl m_b99a1d1e-dcf3-e281-0225-1442037cdd93
f 380/1088/272 383/1087/272 381/1086/272 378/1085/272
f 379/1092/273 380/1091/273 378/1090/273 377/1089/273
f 384/1096/274 379/1095/274 377/1094/274 382/1093/274
f 383/1100/275 384/1099/275 382/1098/275 381/1097/275
f 382/1104/276 377/1103/276 378/1102/276 381/1101/276
f 383/1108/277 380/1107/277 379/1106/277 384/1105/277
o cube
v 1.25 1 1.6875
v 1.25 1 0.9375
v 1.25 0.875 1.6875
v 1.25 0.875 0.9375
v 0.5 1 0.9375
v 0.5 1 1.6875
v 0.5 0.875 0.9375
v 0.5 0.875 1.6875
vt 0.4296875 0.48828125
vt 0.4765625 0.48828125
vt 0.4765625 0.49609375
vt 0.4296875 0.49609375
vt 0.4921875 0.48828125
vt 0.4453125 0.48828125
vt 0.4453125 0.49609375
vt 0.4921875 0.49609375
vt 0.4296875 0.5546875
vt 0.4765625 0.5546875
vt 0.4765625 0.546875
vt 0.4296875 0.546875
vt 0.4453125 0.48828125
vt 0.4921875 0.48828125
vt 0.4921875 0.49609375
vt 0.4453125 0.49609375
vt 0.4453125 0.36328125
vt 0.4921875 0.36328125
vt 0.4921875 0.41015625
vt 0.4453125 0.41015625
vt 0.4453125 0.42578125
vt 0.4921875 0.42578125
vt 0.4921875 0.47265625
vt 0.4453125 0.47265625
vn 0 0 -1
vn 1 0 0
vn 0 0 1
vn -1 0 0
vn 0 1 0
vn 0 -1 0
usemtl m_b99a1d1e-dcf3-e281-0225-1442037cdd93
f 388/1112/278 391/1111/278 389/1110/278 386/1109/278
f 387/1116/279 388/1115/279 386/1114/279 385/1113/279
f 392/1120/280 387/1119/280 385/1118/280 390/1117/280
f 391/1124/281 392/1123/281 390/1122/281 389/1121/281
f 390/1128/282 385/1127/282 386/1126/282 389/1125/282
f 391/1132/283 388/1131/283 387/1130/283 392/1129/283
o cube
v 1.25 0.875 1.6875
v 1.25 1.8598077530122081 1.8611481776669303
v 1.25 0.8967060222083663 1.5643990308734739
v 1.25 1.8815137752205744 1.7380472085404044
v 0.5 1.8598077530122081 1.8611481776669303
v 0.5 0.875 1.6875
v 0.5 1.8815137752205744 1.7380472085404044
v 0.5 0.8967060222083663 1.5643990308734739
vt 0.4296875 0.49609375
vt 0.4765625 0.49609375
vt 0.4765625 0.48828125
vt 0.4296875 0.48828125
vt 0.4921875 0.49609375
vt 0.4296875 0.49609375
vt 0.4296875 0.48828125
vt 0.4921875 0.48828125
vt 0.4296875 0.5546875
vt 0.4765625 0.5546875
vt 0.4765625 0.546875
vt 0.4296875 0.546875
vt 0.4296875 0.49609375
vt 0.4921875 0.49609375
vt 0.4921875 0.48828125
vt 0.4296875 0.48828125
vt 0.4453125 0.48828125
vt 0.4921875 0.48828125
vt 0.4921875 0.42578125
vt 0.4453125 0.42578125
vt 0.4453125 0.42578125
vt 0.4921875 0.42578125
vt 0.4921875 0.36328125
vt 0.4453125 0.36328125
vn 0 0.9848077530122081 0.1736481776669303
vn 1 0 0
vn 0 -0.9848077530122081 -0.1736481776669303
vn -1 0 0
vn 0 -0.1736481776669303 0.9848077530122081
vn 0 0.1736481776669303 -0.9848077530122081
usemtl m_b99a1d1e-dcf3-e281-0225-1442037cdd93
f 396/1136/284 399/1135/284 397/1134/284 394/1133/284
f 395/1140/285 396/1139/285 394/1138/285 393/1137/285
f 400/1144/286 395/1143/286 393/1142/286 398/1141/286
f 399/1148/287 400/1147/287 398/1146/287 397/1145/287
f 398/1152/288 393/1151/288 394/1150/288 397/1149/288
f 399/1156/289 396/1155/289 395/1154/289 400/1153/289
o cube
v 1.1875 0.875 1.6875
v 1.1875 0.875 1.125
v 1.1875 0.75 1.6875
v 1.1875 0.75 1.125
v 0.5625 0.875 1.125
v 0.5625 0.875 1.6875
v 0.5625 0.75 1.125
v 0.5625 0.75 1.6875
vt 0.40625 0.48828125
vt 0.4453125 0.48828125
vt 0.4453125 0.48046875
vt 0.40625 0.48046875
vt 0.40625 0.48828125
vt 0.44140625 0.48828125
vt 0.44140625 0.48046875
vt 0.40625 0.48046875
vt 0.40625 0.48828125
vt 0.4453125 0.48828125
vt 0.4453125 0.48046875
vt 0.40625 0.48046875
vt 0.40625 0.48828125
vt 0.44140625 0.48828125
vt 0.44140625 0.48046875
vt 0.40625 0.48046875
vt 0.40625 0.48046875
vt 0.4453125 0.48046875
vt 0.4453125 0.4453125
vt 0.40625 0.4453125
vt 0.40625 0.48046875
vt 0.4453125 0.48046875
vt 0.4453125 0.4453125
vt 0.40625 0.4453125
vn 0 0 -1
vn 1 0 0
vn 0 0 1
vn -1 0 0
vn 0 1 0
vn 0 -1 0
usemtl m_b99a1d1e-dcf3-e281-0225-1442037cdd93
f 404/1160/290 407/1159/290 405/1158/290 402/1157/290
f 403/1164/291 404/1163/291 402/1162/291 401/1161/291
f 408/1168/292 403/1167/292 401/1166/292 406/1165/292
f 407/1172/293 408/1171/293 406/1170/293 405/1169/293
f 406/1176/294 401/1175/294 402/1174/294 405/1173/294
f 407/1180/295 404/1179/295 403/1178/295 408/1177/295
o cube
v -0.5 1 2.703125
v -0.5 1 1.953125
v -0.5 0.875 2.703125
v -0.5 0.875 1.953125
v -1.25 1 1.953125
v -1.25 1 2.703125
v -1.25 0.875 1.953125
v -1.25 0.875 2.703125
vt 0.4296875 0.48828125
vt 0.4765625 0.48828125
vt 0.4765625 0.49609375
vt 0.4296875 0.49609375
vt 0.4921875 0.48828125
vt 0.4453125 0.48828125
vt 0.4453125 0.49609375
vt 0.4921875 0.49609375
vt 0.4296875 0.5546875
vt 0.4765625 0.5546875
vt 0.4765625 0.546875
vt 0.4296875 0.546875
vt 0.4453125 0.48828125
vt 0.4921875 0.48828125
vt 0.4921875 0.49609375
vt 0.4453125 0.49609375
vt 0.4453125 0.36328125
vt 0.4921875 0.36328125
vt 0.4921875 0.41015625
vt 0.4453125 0.41015625
vt 0.4453125 0.42578125
vt 0.4921875 0.42578125
vt 0.4921875 0.47265625
vt 0.4453125 0.47265625
vn 0 0 -1
vn 1 0 0
vn 0 0 1
vn -1 0 0
vn 0 1 0
vn 0 -1 0
usemtl m_b99a1d1e-dcf3-e281-0225-1442037cdd93
f 412/1184/296 415/1183/296 413/1182/296 410/1181/296
f 411/1188/297 412/1187/297 410/1186/297 409/1185/297
f 416/1192/298 411/1191/298 409/1190/298 414/1189/298
f 415/1196/299 416/1195/299 414/1194/299 413/1193/299
f 414/1200/300 409/1199/300 410/1198/300 413/1197/300
f 415/1204/301 412/1203/301 411/1202/301 416/1201/301
o cube
v -0.5 0.875 2.703125
v -0.5 1.8598077530122081 2.87677317766693
v -0.5 0.8967060222083663 2.580024030873474
v -0.5 1.8815137752205744 2.7536722085404044
v -1.25 1.8598077530122081 2.87677317766693
v -1.25 0.875 2.703125
v -1.25 1.8815137752205744 2.7536722085404044
v -1.25 0.8967060222083663 2.580024030873474
vt 0.4296875 0.49609375
vt 0.4765625 0.49609375
vt 0.4765625 0.48828125
vt 0.4296875 0.48828125
vt 0.4921875 0.49609375
vt 0.4296875 0.49609375
vt 0.4296875 0.48828125
vt 0.4921875 0.48828125
vt 0.4296875 0.5546875
vt 0.4765625 0.5546875
vt 0.4765625 0.546875
vt 0.4296875 0.546875
vt 0.4296875 0.49609375
vt 0.4921875 0.49609375
vt 0.4921875 0.48828125
vt 0.4296875 0.48828125
vt 0.4453125 0.48828125
vt 0.4921875 0.48828125
vt 0.4921875 0.42578125
vt 0.4453125 0.42578125
vt 0.4453125 0.42578125
vt 0.4921875 0.42578125
vt 0.4921875 0.36328125
vt 0.4453125 0.36328125
vn 0 0.9848077530122081 0.1736481776669303
vn 1 0 0
vn 0 -0.9848077530122081 -0.1736481776669303
vn -1 0 0
vn 0 -0.1736481776669303 0.9848077530122081
vn 0 0.1736481776669303 -0.9848077530122081
usemtl m_b99a1d1e-dcf3-e281-0225-1442037cdd93
f 420/1208/302 423/1207/302 421/1206/302 418/1205/302
f 419/1212/303 420/1211/303 418/1210/303 417/1209/303
f 424/1216/304 419/1215/304 417/1214/304 422/1213/304
f 423/1220/305 424/1219/305 422/1218/305 421/1217/305
f 422/1224/306 417/1223/306 418/1222/306 421/1221/306
f 423/1228/307 420/1227/307 419/1226/307 424/1225/307
o cube
v -0.5625 0.875 2.703125
v -0.5625 0.875 2.140625
v -0.5625 0.75 2.703125
v -0.5625 0.75 2.140625
v -1.1875 0.875 2.140625
v -1.1875 0.875 2.703125
v -1.1875 0.75 2.140625
v -1.1875 0.75 2.703125
vt 0.40625 0.48828125
vt 0.4453125 0.48828125
vt 0.4453125 0.48046875
vt 0.40625 0.48046875
vt 0.40625 0.48828125
vt 0.44140625 0.48828125
vt 0.44140625 0.48046875
vt 0.40625 0.48046875
vt 0.40625 0.48828125
vt 0.4453125 0.48828125
vt 0.4453125 0.48046875
vt 0.40625 0.48046875
vt 0.40625 0.48828125
vt 0.44140625 0.48828125
vt 0.44140625 0.48046875
vt 0.40625 0.48046875
vt 0.40625 0.48046875
vt 0.4453125 0.48046875
vt 0.4453125 0.4453125
vt 0.40625 0.4453125
vt 0.40625 0.48046875
vt 0.4453125 0.48046875
vt 0.4453125 0.4453125
vt 0.40625 0.4453125
vn 0 0 -1
vn 1 0 0
vn 0 0 1
vn -1 0 0
vn 0 1 0
vn 0 -1 0
usemtl m_b99a1d1e-dcf3-e281-0225-1442037cdd93
f 428/1232/308 431/1231/308 429/1230/308 426/1229/308
f 427/1236/309 428/1235/309 426/1234/309 425/1233/309
f 432/1240/310 427/1239/310 425/1238/310 430/1237/310
f 431/1244/311 432/1243/311 430/1242/311 429/1241/311
f 430/1248/312 425/1247/312 426/1246/312 429/1245/312
f 431/1252/313 428/1251/313 427/1250/313 432/1249/313
o cube
v -0.5 1 3.71875
v -0.5 1 2.96875
v -0.5 0.875 3.71875
v -0.5 0.875 2.96875
v -1.25 1 2.96875
v -1.25 1 3.71875
v -1.25 0.875 2.96875
v -1.25 0.875 3.71875
vt 0.4296875 0.48828125
vt 0.4765625 0.48828125
vt 0.4765625 0.49609375
vt 0.4296875 0.49609375
vt 0.4921875 0.48828125
vt 0.4453125 0.48828125
vt 0.4453125 0.49609375
vt 0.4921875 0.49609375
vt 0.4296875 0.5546875
vt 0.4765625 0.5546875
vt 0.4765625 0.546875
vt 0.4296875 0.546875
vt 0.4453125 0.48828125
vt 0.4921875 0.48828125
vt 0.4921875 0.49609375
vt 0.4453125 0.49609375
vt 0.4453125 0.36328125
vt 0.4921875 0.36328125
vt 0.4921875 0.41015625
vt 0.4453125 0.41015625
vt 0.4453125 0.42578125
vt 0.4921875 0.42578125
vt 0.4921875 0.47265625
vt 0.4453125 0.47265625
vn 0 0 -1
vn 1 0 0
vn 0 0 1
vn -1 0 0
vn 0 1 0
vn 0 -1 0
usemtl m_b99a1d1e-dcf3-e281-0225-1442037cdd93
f 436/1256/314 439/1255/314 437/1254/314 434/1253/314
f 435/1260/315 436/1259/315 434/1258/315 433/1257/315
f 440/1264/316 435/1263/316 433/1262/316 438/1261/316
f 439/1268/317 440/1267/317 438/1266/317 437/1265/317
f 438/1272/318 433/1271/318 434/1270/318 437/1269/318
f 439/1276/319 436/1275/319 435/1274/319 440/1273/319
o cube
v -0.5 0.875 3.71875
v -0.5 1.8598077530122081 3.89239817766693
v -0.5 0.8967060222083663 3.595649030873474
v -0.5 1.8815137752205744 3.7692972085404044
v -1.25 1.8598077530122081 3.89239817766693
v -1.25 0.875 3.71875
v -1.25 1.8815137752205744 3.7692972085404044
v -1.25 0.8967060222083663 3.595649030873474
vt 0.4296875 0.49609375
vt 0.4765625 0.49609375
vt 0.4765625 0.48828125
vt 0.4296875 0.48828125
vt 0.4921875 0.49609375
vt 0.4296875 0.49609375
vt 0.4296875 0.48828125
vt 0.4921875 0.48828125
vt 0.4296875 0.5546875
vt 0.4765625 0.5546875
vt 0.4765625 0.546875
vt 0.4296875 0.546875
vt 0.4296875 0.49609375
vt 0.4921875 0.49609375
vt 0.4921875 0.48828125
vt 0.4296875 0.48828125
vt 0.4453125 0.48828125
vt 0.4921875 0.48828125
vt 0.4921875 0.42578125
vt 0.4453125 0.42578125
vt 0.4453125 0.42578125
vt 0.4921875 0.42578125
vt 0.4921875 0.36328125
vt 0.4453125 0.36328125
vn 0 0.9848077530122081 0.1736481776669303
vn 1 0 0
vn 0 -0.9848077530122081 -0.1736481776669303
vn -1 0 0
vn 0 -0.1736481776669303 0.9848077530122081
vn 0 0.1736481776669303 -0.9848077530122081
usemtl m_b99a1d1e-dcf3-e281-0225-1442037cdd93
f 444/1280/320 447/1279/320 445/1278/320 442/1277/320
f 443/1284/321 444/1283/321 442/1282/321 441/1281/321
f 448/1288/322 443/1287/322 441/1286/322 446/1285/322
f 447/1292/323 448/1291/323 446/1290/323 445/1289/323
f 446/1296/324 441/1295/324 442/1294/324 445/1293/324
f 447/1300/325 444/1299/325 443/1298/325 448/1297/325
o cube
v -0.5625 0.875 3.71875
v -0.5625 0.875 3.15625
v -0.5625 0.75 3.71875
v -0.5625 0.75 3.15625
v -1.1875 0.875 3.15625
v -1.1875 0.875 3.71875
v -1.1875 0.75 3.15625
v -1.1875 0.75 3.71875
vt 0.40625 0.48828125
vt 0.4453125 0.48828125
vt 0.4453125 0.48046875
vt 0.40625 0.48046875
vt 0.40625 0.48828125
vt 0.44140625 0.48828125
vt 0.44140625 0.48046875
vt 0.40625 0.48046875
vt 0.40625 0.48828125
vt 0.4453125 0.48828125
vt 0.4453125 0.48046875
vt 0.40625 0.48046875
vt 0.40625 0.48828125
vt 0.44140625 0.48828125
vt 0.44140625 0.48046875
vt 0.40625 0.48046875
vt 0.40625 0.48046875
vt 0.4453125 0.48046875
vt 0.4453125 0.4453125
vt 0.40625 0.4453125
vt 0.40625 0.48046875
vt 0.4453125 0.48046875
vt 0.4453125 0.4453125
vt 0.40625 0.4453125
vn 0 0 -1
vn 1 0 0
vn 0 0 1
vn -1 0 0
vn 0 1 0
vn 0 -1 0
usemtl m_b99a1d1e-dcf3-e281-0225-1442037cdd93
f 452/1304/326 455/1303/326 453/1302/326 450/1301/326
f 451/1308/327 452/1307/327 450/1306/327 449/1305/327
f 456/1312/328 451/1311/328 449/1310/328 454/1309/328
f 455/1316/329 456/1315/329 454/1314/329 453/1313/329
f 454/1320/330 449/1319/330 450/1318/330 453/1317/330
f 455/1324/331 452/1323/331 451/1322/331 456/1321/331
o cube
v 1.25 1 2.703125
v 1.25 1 1.953125
v 1.25 0.875 2.703125
v 1.25 0.875 1.953125
v 0.5 1 1.953125
v 0.5 1 2.703125
v 0.5 0.875 1.953125
v 0.5 0.875 2.703125
vt 0.4296875 0.48828125
vt 0.4765625 0.48828125
vt 0.4765625 0.49609375
vt 0.4296875 0.49609375
vt 0.4921875 0.48828125
vt 0.4453125 0.48828125
vt 0.4453125 0.49609375
vt 0.4921875 0.49609375
vt 0.4296875 0.5546875
vt 0.4765625 0.5546875
vt 0.4765625 0.546875
vt 0.4296875 0.546875
vt 0.4453125 0.48828125
vt 0.4921875 0.48828125
vt 0.4921875 0.49609375
vt 0.4453125 0.49609375
vt 0.4453125 0.36328125
vt 0.4921875 0.36328125
vt 0.4921875 0.41015625
vt 0.4453125 0.41015625
vt 0.4453125 0.42578125
vt 0.4921875 0.42578125
vt 0.4921875 0.47265625
vt 0.4453125 0.47265625
vn 0 0 -1
vn 1 0 0
vn 0 0 1
vn -1 0 0
vn 0 1 0
vn 0 -1 0
usemtl m_b99a1d1e-dcf3-e281-0225-1442037cdd93
f 460/1328/332 463/1327/332 461/1326/332 458/1325/332
f 459/1332/333 460/1331/333 458/1330/333 457/1329/333
f 464/1336/334 459/1335/334 457/1334/334 462/1333/334
f 463/1340/335 464/1339/335 462/1338/335 461/1337/335
f 462/1344/336 457/1343/336 458/1342/336 461/1341/336
f 463/1348/337 460/1347/337 459/1346/337 464/1345/337
o cube
v 1.25 0.875 2.703125
v 1.25 1.8598077530122081 2.87677317766693
v 1.25 0.8967060222083663 2.580024030873474
v 1.25 1.8815137752205744 2.7536722085404044
v 0.5 1.8598077530122081 2.87677317766693
v 0.5 0.875 2.703125
v 0.5 1.8815137752205744 2.7536722085404044
v 0.5 0.8967060222083663 2.580024030873474
vt 0.4296875 0.49609375
vt 0.4765625 0.49609375
vt 0.4765625 0.48828125
vt 0.4296875 0.48828125
vt 0.4921875 0.49609375
vt 0.4296875 0.49609375
vt 0.4296875 0.48828125
vt 0.4921875 0.48828125
vt 0.4296875 0.5546875
vt 0.4765625 0.5546875
vt 0.4765625 0.546875
vt 0.4296875 0.546875
vt 0.4296875 0.49609375
vt 0.4921875 0.49609375
vt 0.4921875 0.48828125
vt 0.4296875 0.48828125
vt 0.4453125 0.48828125
vt 0.4921875 0.48828125
vt 0.4921875 0.42578125
vt 0.4453125 0.42578125
vt 0.4453125 0.42578125
vt 0.4921875 0.42578125
vt 0.4921875 0.36328125
vt 0.4453125 0.36328125
vn 0 0.9848077530122081 0.1736481776669303
vn 1 0 0
vn 0 -0.9848077530122081 -0.1736481776669303
vn -1 0 0
vn 0 -0.1736481776669303 0.9848077530122081
vn 0 0.1736481776669303 -0.9848077530122081
usemtl m_b99a1d1e-dcf3-e281-0225-1442037cdd93
f 468/1352/338 471/1351/338 469/1350/338 466/1349/338
f 467/1356/339 468/1355/339 466/1354/339 465/1353/339
f 472/1360/340 467/1359/340 465/1358/340 470/1357/340
f 471/1364/341 472/1363/341 470/1362/341 469/1361/341
f 470/1368/342 465/1367/342 466/1366/342 469/1365/342
f 471/1372/343 468/1371/343 467/1370/343 472/1369/343
o cube
v 1.1875 0.875 2.703125
v 1.1875 0.875 2.140625
v 1.1875 0.75 2.703125
v 1.1875 0.75 2.140625
v 0.5625 0.875 2.140625
v 0.5625 0.875 2.703125
v 0.5625 0.75 2.140625
v 0.5625 0.75 2.703125
vt 0.40625 0.48828125
vt 0.4453125 0.48828125
vt 0.4453125 0.48046875
vt 0.40625 0.48046875
vt 0.40625 0.48828125
vt 0.44140625 0.48828125
vt 0.44140625 0.48046875
vt 0.40625 0.48046875
vt 0.40625 0.48828125
vt 0.4453125 0.48828125
vt 0.4453125 0.48046875
vt 0.40625 0.48046875
vt 0.40625 0.48828125
vt 0.44140625 0.48828125
vt 0.44140625 0.48046875
vt 0.40625 0.48046875
vt 0.40625 0.48046875
vt 0.4453125 0.48046875
vt 0.4453125 0.4453125
vt 0.40625 0.4453125
vt 0.40625 0.48046875
vt 0.4453125 0.48046875
vt 0.4453125 0.4453125
vt 0.40625 0.4453125
vn 0 0 -1
vn 1 0 0
vn 0 0 1
vn -1 0 0
vn 0 1 0
vn 0 -1 0
usemtl m_b99a1d1e-dcf3-e281-0225-1442037cdd93
f 476/1376/344 479/1375/344 477/1374/344 474/1373/344
f 475/1380/345 476/1379/345 474/1378/345 473/1377/345
f 480/1384/346 475/1383/346 473/1382/346 478/1381/346
f 479/1388/347 480/1387/347 478/1386/347 477/1385/347
f 478/1392/348 473/1391/348 474/1390/348 477/1389/348
f 479/1396/349 476/1395/349 475/1394/349 480/1393/349
o cube
v 1.25 1 3.71875
v 1.25 1 2.96875
v 1.25 0.875 3.71875
v 1.25 0.875 2.96875
v 0.5 1 2.96875
v 0.5 1 3.71875
v 0.5 0.875 2.96875
v 0.5 0.875 3.71875
vt 0.4296875 0.48828125
vt 0.4765625 0.48828125
vt 0.4765625 0.49609375
vt 0.4296875 0.49609375
vt 0.4921875 0.48828125
vt 0.4453125 0.48828125
vt 0.4453125 0.49609375
vt 0.4921875 0.49609375
vt 0.4296875 0.5546875
vt 0.4765625 0.5546875
vt 0.4765625 0.546875
vt 0.4296875 0.546875
vt 0.4453125 0.48828125
vt 0.4921875 0.48828125
vt 0.4921875 0.49609375
vt 0.4453125 0.49609375
vt 0.4453125 0.36328125
vt 0.4921875 0.36328125
vt 0.4921875 0.41015625
vt 0.4453125 0.41015625
vt 0.4453125 0.42578125
vt 0.4921875 0.42578125
vt 0.4921875 0.47265625
vt 0.4453125 0.47265625
vn 0 0 -1
vn 1 0 0
vn 0 0 1
vn -1 0 0
vn 0 1 0
vn 0 -1 0
usemtl m_b99a1d1e-dcf3-e281-0225-1442037cdd93
f 484/1400/350 487/1399/350 485/1398/350 482/1397/350
f 483/1404/351 484/1403/351 482/1402/351 481/1401/351
f 488/1408/352 483/1407/352 481/1406/352 486/1405/352
f 487/1412/353 488/1411/353 486/1410/353 485/1409/353
f 486/1416/354 481/1415/354 482/1414/354 485/1413/354
f 487/1420/355 484/1419/355 483/1418/355 488/1417/355
o cube
v 1.25 0.875 3.71875
v 1.25 1.8598077530122081 3.89239817766693
v 1.25 0.8967060222083663 3.595649030873474
v 1.25 1.8815137752205744 3.7692972085404044
v 0.5 1.8598077530122081 3.89239817766693
v 0.5 0.875 3.71875
v 0.5 1.8815137752205744 3.7692972085404044
v 0.5 0.8967060222083663 3.595649030873474
vt 0.4296875 0.49609375
vt 0.4765625 0.49609375
vt 0.4765625 0.48828125
vt 0.4296875 0.48828125
vt 0.4921875 0.49609375
vt 0.4296875 0.49609375
vt 0.4296875 0.48828125
vt 0.4921875 0.48828125
vt 0.4296875 0.5546875
vt 0.4765625 0.5546875
vt 0.4765625 0.546875
vt 0.4296875 0.546875
vt 0.4296875 0.49609375
vt 0.4921875 0.49609375
vt 0.4921875 0.48828125
vt 0.4296875 0.48828125
vt 0.4453125 0.48828125
vt 0.4921875 0.48828125
vt 0.4921875 0.42578125
vt 0.4453125 0.42578125
vt 0.4453125 0.42578125
vt 0.4921875 0.42578125
vt 0.4921875 0.36328125
vt 0.4453125 0.36328125
vn 0 0.9848077530122081 0.1736481776669303
vn 1 0 0
vn 0 -0.9848077530122081 -0.1736481776669303
vn -1 0 0
vn 0 -0.1736481776669303 0.9848077530122081
vn 0 0.1736481776669303 -0.9848077530122081
usemtl m_b99a1d1e-dcf3-e281-0225-1442037cdd93
f 492/1424/356 495/1423/356 493/1422/356 490/1421/356
f 491/1428/357 492/1427/357 490/1426/357 489/1425/357
f 496/1432/358 491/1431/358 489/1430/358 494/1429/358
f 495/1436/359 496/1435/359 494/1434/359 493/1433/359
f 494/1440/360 489/1439/360 490/1438/360 493/1437/360
f 495/1444/361 492/1443/361 491/1442/361 496/1441/361
o cube
v 1.1875 0.875 3.71875
v 1.1875 0.875 3.15625
v 1.1875 0.75 3.71875
v 1.1875 0.75 3.15625
v 0.5625 0.875 3.15625
v 0.5625 0.875 3.71875
v 0.5625 0.75 3.15625
v 0.5625 0.75 3.71875
vt 0.40625 0.48828125
vt 0.4453125 0.48828125
vt 0.4453125 0.48046875
vt 0.40625 0.48046875
vt 0.40625 0.48828125
vt 0.44140625 0.48828125
vt 0.44140625 0.48046875
vt 0.40625 0.48046875
vt 0.40625 0.48828125
vt 0.4453125 0.48828125
vt 0.4453125 0.48046875
vt 0.40625 0.48046875
vt 0.40625 0.48828125
vt 0.44140625 0.48828125
vt 0.44140625 0.48046875
vt 0.40625 0.48046875
vt 0.40625 0.48046875
vt 0.4453125 0.48046875
vt 0.4453125 0.4453125
vt 0.40625 0.4453125
vt 0.40625 0.48046875
vt 0.4453125 0.48046875
vt 0.4453125 0.4453125
vt 0.40625 0.4453125
vn 0 0 -1
vn 1 0 0
vn 0 0 1
vn -1 0 0
vn 0 1 0
vn 0 -1 0
usemtl m_b99a1d1e-dcf3-e281-0225-1442037cdd93
f 500/1448/362 503/1447/362 501/1446/362 498/1445/362
f 499/1452/363 500/1451/363 498/1450/363 497/1449/363
f 504/1456/364 499/1455/364 497/1454/364 502/1453/364
f 503/1460/365 504/1459/365 502/1458/365 501/1457/365
f 502/1464/366 497/1463/366 498/1462/366 501/1461/366
f 503/1468/367 500/1467/367 499/1466/367 504/1465/367
o cube
v -0.3125 0.75 -3.125
v -0.3125 0.75 -3.875
v -0.3125 0.625 -3.125
v -0.3125 0.625 -3.875
v -1.0625 0.75 -3.875
v -1.0625 0.75 -3.125
v -1.0625 0.625 -3.875
v -1.0625 0.625 -3.125
vt 0.4296875 0.48828125
vt 0.4765625 0.48828125
vt 0.4765625 0.49609375
vt 0.4296875 0.49609375
vt 0.4921875 0.48828125
vt 0.4453125 0.48828125
vt 0.4453125 0.49609375
vt 0.4921875 0.49609375
vt 0.4296875 0.5546875
vt 0.4765625 0.5546875
vt 0.4765625 0.546875
vt 0.4296875 0.546875
vt 0.4453125 0.48828125
vt 0.4921875 0.48828125
vt 0.4921875 0.49609375
vt 0.4453125 0.49609375
vt 0.4453125 0.36328125
vt 0.4921875 0.36328125
vt 0.4921875 0.41015625
vt 0.4453125 0.41015625
vt 0.4453125 0.42578125
vt 0.4921875 0.42578125
vt 0.4921875 0.47265625
vt 0.4453125 0.47265625
vn 0 0 -1
vn 1 0 0
vn 0 0 1
vn -1 0 0
vn 0 1 0
vn 0 -1 0
usemtl m_b99a1d1e-dcf3-e281-0225-1442037cdd93
f 508/1472/368 511/1471/368 509/1470/368 506/1469/368
f 507/1476/369 508/1475/369 506/1474/369 505/1473/369
f 512/1480/370 507/1479/370 505/1478/370 510/1477/370
f 511/1484/371 512/1483/371 510/1482/371 509/1481/371
f 510/1488/372 505/1487/372 506/1486/372 509/1485/372
f 511/1492/373 508/1491/373 507/1490/373 512/1489/373
o cube
v -0.3125 0.625 -3.125
v -0.3125 1.6098077530122081 -2.95135182233307
v -0.3125 0.6467060222083663 -3.248100969126526
v -0.3125 1.6315137752205744 -3.0744527914595956
v -1.0625 1.6098077530122081 -2.95135182233307
v -1.0625 0.625 -3.125
v -1.0625 1.6315137752205744 -3.0744527914595956
v -1.0625 0.6467060222083663 -3.248100969126526
vt 0.4296875 0.49609375
vt 0.4765625 0.49609375
vt 0.4765625 0.48828125
vt 0.4296875 0.48828125
vt 0.4921875 0.49609375
vt 0.4296875 0.49609375
vt 0.4296875 0.48828125
vt 0.4921875 0.48828125
vt 0.4296875 0.5546875
vt 0.4765625 0.5546875
vt 0.4765625 0.546875
vt 0.4296875 0.546875
vt 0.4296875 0.49609375
vt 0.4921875 0.49609375
vt 0.4921875 0.48828125
vt 0.4296875 0.48828125
vt 0.4453125 0.48828125
vt 0.4921875 0.48828125
vt 0.4921875 0.42578125
vt 0.4453125 0.42578125
vt 0.4453125 0.42578125
vt 0.4921875 0.42578125
vt 0.4921875 0.36328125
vt 0.4453125 0.36328125
vn 0 0.9848077530122081 0.1736481776669303
vn 1 0 0
vn 0 -0.9848077530122081 -0.1736481776669303
vn -1 0 0
vn 0 -0.1736481776669303 0.9848077530122081
vn 0 0.1736481776669303 -0.9848077530122081
usemtl m_b99a1d1e-dcf3-e281-0225-1442037cdd93
f 516/1496/374 519/1495/374 517/1494/374 514/1493/374
f 515/1500/375 516/1499/375 514/1498/375 513/1497/375
f 520/1504/376 515/1503/376 513/1502/376 518/1501/376
f 519/1508/377 520/1507/377 518/1506/377 517/1505/377
f 518/1512/378 513/1511/378 514/1510/378 517/1509/378
f 519/1516/379 516/1515/379 515/1514/379 520/1513/379