# Made in Blockbench 4.12.3
mtllib bus_wheel.mtl

o cylinder
v 8.217301096052204e-34 3.700743415417188e-18 -3.700743415417188e-18
v 3.736439151726276e-17 0.1682742597140699 0.4062500000000001
v -0.06249999999999996 0.19416260736238833 0.46875000000000006
v 9.020562075079397e-17 0.40625 0.16827425971406992
v -0.062499999999999896 0.46875000000000006 0.19416260736238836
v 9.020562075079397e-17 0.40625 -0.16827425971406987
v -0.062499999999999896 0.46875000000000006 -0.1941626073623883
v 3.7364391517262774e-17 0.16827425971406995 -0.40625
v -0.06249999999999996 0.19416260736238838 -0.46875000000000006
v -3.736439151726275e-17 -0.16827425971406984 -0.4062500000000001
v -0.06250000000000004 -0.19416260736238827 -0.4687500000000001
v -9.020562075079397e-17 -0.40625 -0.16827425971407015
v -0.0625000000000001 -0.46874999999999994 -0.1941626073623886
v -9.020562075079397e-17 -0.40625 0.16827425971406998
v -0.06250000000000011 -0.46875 0.19416260736238844
v -3.736439151726282e-17 -0.16827425971407015 0.40625
v -0.06250000000000004 -0.19416260736238866 0.46874999999999994
v -0.3749999999999999 0.4687500000000001 0.19416260736238836
v -0.3749999999999999 0.4687500000000001 -0.1941626073623883
v -0.37499999999999994 0.19416260736238847 -0.46875000000000006
v -0.37500000000000006 -0.1941626073623882 -0.4687500000000001
v -0.3750000000000001 -0.4687499999999999 -0.1941626073623886
v -0.3750000000000001 -0.4687499999999999 0.19416260736238844
v -0.37500000000000006 -0.19416260736238858 0.46874999999999994
v -0.37499999999999994 0.1941626073623884 0.46875000000000006
v -0.4374999999999999 0.4062500000000001 0.16827425971406992
v -0.4374999999999999 0.4062500000000001 -0.16827425971406987
v -0.43749999999999994 0.16827425971407006 -0.40625
v -0.43750000000000006 -0.16827425971406973 -0.4062500000000001
v -0.4375000000000001 -0.4062499999999999 -0.16827425971407015
v -0.4375000000000001 -0.4062499999999999 0.16827425971406998
v -0.43750000000000006 -0.16827425971407006 0.40625
v -0.43749999999999994 0.16827425971407 0.4062500000000001
v -0.43749999999999994 0.14238591206575157 0.3437500000000001
v -0.43749999999999994 0.3437500000000001 0.14238591206575146
v -0.43750000000000006 -0.14238591206575157 0.34375
v -0.43750000000000006 -0.3437499999999999 0.14238591206575152
v -0.43750000000000006 -0.3437499999999999 -0.14238591206575166
v -0.43750000000000006 -0.1423859120657513 -0.3437500000000001
v -0.43749999999999994 0.14238591206575163 -0.34375
v -0.43749999999999994 0.3437500000000001 -0.14238591206575144
v -0.375 0.11649756441743313 0.2812500000000001
v -0.37499999999999994 0.2812500000000001 0.11649756441743302
v -0.375 -0.1164975644174331 0.28125
v -0.37500000000000006 -0.2812499999999999 0.11649756441743307
v -0.37500000000000006 -0.2812499999999999 -0.11649756441743318
v -0.375 -0.11649756441743286 -0.2812500000000001
v -0.375 0.11649756441743318 -0.28125
v -0.37499999999999994 0.2812500000000001 -0.116497564417433
v -0.4375 0.06472086912079623 0.1562500000000001
v -0.43749999999999994 0.1562500000000001 0.06472086912079614
v -0.4375 1.2954758564342106e-16 -1.4233628520835342e-18
v -0.4375 -0.06472086912079612 0.15625000000000003
v -0.43750000000000006 -0.1562499999999999 0.06472086912079617
v -0.43750000000000006 -0.1562499999999999 -0.06472086912079623
v -0.4375 -0.06472086912079598 -0.1562500000000001
v -0.4375 0.06472086912079626 -0.15625000000000003
v -0.43749999999999994 0.1562500000000001 -0.06472086912079612
vt 0.3562389108660424 0.890625
vt 0.0823066430853735 0.890625
vt 0.2192727769757079 0.5470252959674436
vt 0.39356167299456646 0.9375115612282651
vt 0.057129405213897644 0.9375115612282651
vt 0.03125 0.9999884387717353
vt 0.419441078208464 0.9999884387717353
vt 0.28884059469413337 0.6876156122826489
vt 0.15944356862464515 0.6876156122826489
vt 0.2241420816593892 0.5314234184239733
vt 0.3562389108660424 0.890625
vt 0.0823066430853735 0.890625
vt 0.2192727769757079 0.5470252959674436
vt 0.39356167299456646 0.9375115612282651
vt 0.057129405213897644 0.9375115612282651
vt 0.03125 0.9999884387717353
vt 0.419441078208464 0.9999884387717353
vt 0.28884059469413337 0.6876156122826489
vt 0.15944356862464515 0.6876156122826489
vt 0.2241420816593892 0.5314234184239733
vt 0.3562389108660424 0.890625
vt 0.0823066430853735 0.890625
vt 0.2192727769757079 0.5470252959674436
vt 0.39356167299456646 0.9375115612282651
vt 0.057129405213897644 0.9375115612282651
vt 0.03125 0.9999884387717353
vt 0.419441078208464 0.9999884387717353
vt 0.28884059469413337 0.6876156122826489
vt 0.15944356862464515 0.6876156122826489
vt 0.2241420816593892 0.5314234184239733
vt 0.3562389108660424 0.890625
vt 0.0823066430853735 0.890625
vt 0.2192727769757079 0.5470252959674436
vt 0.39356167299456646 0.9375115612282651
vt 0.057129405213897644 0.9375115612282651
vt 0.03125 0.9999884387717353
vt 0.419441078208464 0.9999884387717353
vt 0.28884059469413337 0.6876156122826489
vt 0.15944356862464515 0.6876156122826489
vt 0.2241420816593892 0.5314234184239733
vt 0.3562389108660424 0.890625
vt 0.0823066430853735 0.890625
vt 0.2192727769757079 0.5470252959674436
vt 0.39356167299456646 0.9375115612282651
vt 0.057129405213897644 0.9375115612282651
vt 0.03125 0.9999884387717353
vt 0.419441078208464 0.9999884387717353
vt 0.28884059469413337 0.6876156122826489
vt 0.15944356862464515 0.6876156122826489
vt 0.2241420816593892 0.5314234184239733
vt 0.3562389108660424 0.890625
vt 0.0823066430853735 0.890625
vt 0.2192727769757079 0.5470252959674436
vt 0.39356167299456646 0.9375115612282651
vt 0.057129405213897644 0.9375115612282651
vt 0.03125 0.9999884387717353
vt 0.419441078208464 0.9999884387717353
vt 0.28884059469413337 0.6876156122826489
vt 0.15944356862464515 0.6876156122826489
vt 0.2241420816593892 0.5314234184239733
vt 0.3562389108660424 0.890625
vt 0.0823066430853735 0.890625
vt 0.2192727769757079 0.5470252959674436
vt 0.39356167299456646 0.9375115612282651
vt 0.057129405213897644 0.9375115612282651
vt 0.03125 0.9999884387717353
vt 0.419441078208464 0.9999884387717353
vt 0.28884059469413337 0.6876156122826489
vt 0.15944356862464515 0.6876156122826489
vt 0.2241420816593892 0.5314234184239733
vt 0.3562389108660424 0.890625
vt 0.0823066430853735 0.890625
vt 0.2192727769757079 0.5470252959674436
vt 0.39356167299456646 0.9375115612282651
vt 0.057129405213897644 0.9375115612282651
vt 0.03125 0.9999884387717353
vt 0.419441078208464 0.9999884387717353
vt 0.28884059469413337 0.6876156122826489
vt 0.15944356862464515 0.6876156122826489
vt 0.2241420816593892 0.5314234184239733
vt 5.553033269332805e-17 0.40380655019842693
vt 0 0.017187500000000133
vt 0.3124999999999998 0.017187500000000133
vt 0.3125 0.4038065501984268
vt 5.553033269332805e-17 0.40380655019842693
vt 0 0.017187500000000133
vt 0.3124999999999998 0.017187500000000133
vt 0.3125 0.4038065501984268
vt 5.553033269332805e-17 0.40380655019842693
vt 0 0.017187500000000133
vt 0.3124999999999998 0.017187500000000133
vt 0.3125 0.4038065501984268
vt 5.553033269332805e-17 0.40380655019842693
vt 0 0.017187500000000133
vt 0.3124999999999998 0.017187500000000133
vt 0.3125 0.4038065501984268
vt 5.553033269332805e-17 0.40380655019842693
vt 0 0.017187500000000133
vt 0.3124999999999998 0.017187500000000133
vt 0.3125 0.4038065501984268
vt 5.553033269332805e-17 0.40380655019842693
vt 0 0.017187500000000133
vt 0.3124999999999998 0.017187500000000133
vt 0.3125 0.4038065501984268
vt 5.553033269332805e-17 0.40380655019842693
vt 0 0.017187500000000133
vt 0.3124999999999998 0.017187500000000133
vt 0.3125 0.4038065501984268
vt 5.553033269332805e-17 0.40380655019842693
vt 0 0.017187500000000133
vt 0.3124999999999998 0.017187500000000133
vt 0.3125 0.4038065501984268
vt 0.05712940521389753 0.9375115612282651
vt 0.39356167299456635 0.9375115612282651
vt 0.419441078208464 0.9999884387717353
vt 0.03125 0.9999884387717353
vt 0.05712940521389753 0.9375115612282651
vt 0.39356167299456635 0.9375115612282651
vt 0.419441078208464 0.9999884387717353
vt 0.03125 0.9999884387717353
vt 0.05712940521389753 0.9375115612282651
vt 0.39356167299456635 0.9375115612282651
vt 0.419441078208464 0.9999884387717353
vt 0.03125 0.9999884387717353
vt 0.05712940521389753 0.9375115612282651
vt 0.39356167299456635 0.9375115612282651
vt 0.419441078208464 0.9999884387717353
vt 0.03125 0.9999884387717353
vt 0.05712940521389753 0.9375115612282651
vt 0.39356167299456635 0.9375115612282651
vt 0.419441078208464 0.9999884387717353
vt 0.03125 0.9999884387717353
vt 0.05712940521389753 0.9375115612282651
vt 0.39356167299456635 0.9375115612282651
vt 0.419441078208464 0.9999884387717353
vt 0.03125 0.9999884387717353
vt 0.05712940521389753 0.9375115612282651
vt 0.39356167299456635 0.9375115612282651
vt 0.419441078208464 0.9999884387717353
vt 0.03125 0.9999884387717353
vt 0.05712940521389753 0.9375115612282651
vt 0.39356167299456635 0.9375115612282651
vt 0.419441078208464 0.9999884387717353
vt 0.03125 0.9999884387717353
vt 0.08180535298295244 0.8750462449130595
vt 0.36647881033582597 0.8750462449130595
vt 0.3923582155497237 0.9375231224565297
vt 0.055925947769054796 0.9375231224565297
vt 0.08180535298295244 0.8750462449130595
vt 0.36647881033582597 0.8750462449130595
vt 0.3923582155497237 0.9375231224565297
vt 0.055925947769054796 0.9375231224565297
vt 0.08180535298295244 0.8750462449130595
vt 0.36647881033582597 0.8750462449130595
vt 0.3923582155497237 0.9375231224565297
vt 0.055925947769054796 0.9375231224565297
vt 0.08180535298295244 0.8750462449130595
vt 0.36647881033582597 0.8750462449130595
vt 0.3923582155497237 0.9375231224565297
vt 0.055925947769054796 0.9375231224565297
vt 0.08180535298295244 0.8750462449130595
vt 0.36647881033582597 0.8750462449130595
vt 0.3923582155497237 0.9375231224565297
vt 0.055925947769054796 0.9375231224565297
vt 0.08180535298295244 0.8750462449130595
vt 0.36647881033582597 0.8750462449130595
vt 0.3923582155497237 0.9375231224565297
vt 0.055925947769054796 0.9375231224565297
vt 0.08180535298295244 0.8750462449130595
vt 0.36647881033582597 0.8750462449130595
vt 0.3923582155497237 0.9375231224565297
vt 0.055925947769054796 0.9375231224565297
vt 0.08180535298295244 0.8750462449130595
vt 0.36647881033582597 0.8750462449130595
vt 0.3923582155497237 0.9375231224565297
vt 0.055925947769054796 0.9375231224565297
vt 0.10768475819685008 0.8125693673695894
vt 0.34059940512192843 0.8125693673695894
vt 0.36647881033582597 0.8750462449130595
vt 0.08180535298295244 0.8750462449130595
vt 0.10768475819685008 0.8125693673695894
vt 0.34059940512192843 0.8125693673695894
vt 0.36647881033582597 0.8750462449130595
vt 0.08180535298295244 0.8750462449130595
vt 0.10768475819685008 0.8125693673695894
vt 0.34059940512192843 0.8125693673695894
vt 0.36647881033582597 0.8750462449130595
vt 0.08180535298295244 0.8750462449130595
vt 0.10768475819685008 0.8125693673695894
vt 0.34059940512192843 0.8125693673695894
vt 0.36647881033582597 0.8750462449130595
vt 0.08180535298295244 0.8750462449130595
vt 0.10768475819685008 0.8125693673695894
vt 0.34059940512192843 0.8125693673695894
vt 0.36647881033582597 0.8750462449130595
vt 0.08180535298295244 0.8750462449130595
vt 0.10768475819685008 0.8125693673695894
vt 0.34059940512192843 0.8125693673695894
vt 0.36647881033582597 0.8750462449130595
vt 0.08180535298295244 0.8750462449130595
vt 0.10768475819685008 0.8125693673695894
vt 0.34059940512192843 0.8125693673695894
vt 0.36647881033582597 0.8750462449130595
vt 0.08180535298295244 0.8750462449130595
vt 0.10768475819685008 0.8125693673695894
vt 0.34059940512192843 0.8125693673695894
vt 0.36647881033582597 0.8750462449130595
vt 0.08180535298295244 0.8750462449130595
vt 0.15944356862464515 0.6876156122826489
vt 0.28884059469413337 0.6876156122826489
vt 0.34059940512192843 0.8125693673695894
vt 0.10768475819685008 0.8125693673695894
vt 0.15944356862464515 0.6876156122826489
vt 0.28884059469413337 0.6876156122826489
vt 0.34059940512192843 0.8125693673695894
vt 0.10768475819685008 0.8125693673695894
vt 0.15944356862464515 0.6876156122826489
vt 0.28884059469413337 0.6876156122826489
vt 0.34059940512192843 0.8125693673695894
vt 0.10768475819685008 0.8125693673695894
vt 0.15944356862464515 0.6876156122826489
vt 0.28884059469413337 0.6876156122826489
vt 0.34059940512192843 0.8125693673695894
vt 0.10768475819685008 0.8125693673695894
vt 0.15944356862464515 0.6876156122826489
vt 0.28884059469413337 0.6876156122826489
vt 0.34059940512192843 0.8125693673695894
vt 0.10768475819685008 0.8125693673695894
vt 0.15944356862464515 0.6876156122826489
vt 0.28884059469413337 0.6876156122826489
vt 0.34059940512192843 0.8125693673695894
vt 0.10768475819685008 0.8125693673695894
vt 0.15944356862464515 0.6876156122826489
vt 0.28884059469413337 0.6876156122826489
vt 0.34059940512192843 0.8125693673695894
vt 0.10768475819685008 0.8125693673695894
vt 0.15944356862464515 0.6876156122826489
vt 0.28884059469413337 0.6876156122826489
vt 0.34059940512192843 0.8125693673695894
vt 0.10768475819685008 0.8125693673695894
vn 1 -2.220446049250313e-16 0
vn 0.7071067811865479 0.4999999999999997 0.4999999999999997
vn -1 2.220446049250313e-16 0
vn 1 -2.220446049250313e-16 0
vn 0.7071067811865479 0.7071067811865471 0
vn -1 2.220446049250313e-16 0
vn 1 -2.220446049250313e-16 0
vn 0.7071067811865478 0.49999999999999983 -0.49999999999999983
vn -1 2.220446049250313e-16 0
vn 1 -2.220446049250313e-16 0
vn 0.7071067811865475 7.625466231218174e-17 -0.7071067811865476
vn -1 2.220446049250313e-16 0
vn 1 -2.220446049250313e-16 0
vn 0.7071067811865474 -0.5000000000000001 -0.5000000000000004
vn -1 2.220446049250313e-16 0
vn 1 -2.220446049250313e-16 0
vn 0.7071067811865475 -0.7071067811865477 0
vn -1 2.220446049250313e-16 0
vn 1 -2.220446049250313e-16 0
vn 0.7071067811865475 -0.5000000000000003 0.4999999999999999
vn -1 2.220446049250313e-16 0
vn 1 -2.220446049250313e-16 0
vn 0.7071067811865471 -3.9027315404893662e-16 0.707106781186548
vn -1 2.220446049250313e-16 0
vn 2.220446049250313e-16 1 0
vn 1.5700924586837754e-16 0.7071067811865477 -0.7071067811865475
vn 3.1741311603508054e-32 1.4295015910980967e-16 -1
vn -1.5700924586837747e-16 -0.7071067811865474 -0.7071067811865478
vn -2.220446049250313e-16 -1 -1.4295015910980952e-16
vn -6.348262320701605e-32 -2.859003182196191e-16 1
vn -1.5700924586837757e-16 -0.7071067811865478 0.7071067811865474
vn 1.570092458683775e-16 0.7071067811865475 0.7071067811865476
vn -0.7071067811865477 0.7071067811865474 0
vn -0.7071067811865478 0.5 -0.49999999999999967
vn -0.7071067811865479 3.9027315404893667e-16 -0.7071067811865471
vn -0.7071067811865476 -0.49999999999999983 -0.5000000000000004
vn -0.7071067811865474 -0.7071067811865477 0
vn -0.7071067811865474 -7.625466231218167e-17 0.7071067811865478
vn -0.7071067811865477 -0.5000000000000001 0.4999999999999998
vn -0.7071067811865472 0.5000000000000003 0.5000000000000001
vn -1 2.220446049250313e-16 0
vn -1 2.220446049250313e-16 0
vn -1 2.220446049250313e-16 0
vn -1 2.220446049250313e-16 0
vn -1 2.220446049250313e-16 0
vn -1 2.220446049250313e-16 0
vn -1 2.220446049250313e-16 0
vn -1 2.220446049250313e-16 0
vn -0.7071067811865476 -0.5000000000000001 -0.49999999999999983
vn -0.7071067811865476 4.93946002129185e-16 -0.7071067811865475
vn -0.7071067811865474 0.5000000000000003 -0.49999999999999983
vn -0.7071067811865475 0.7071067811865477 0
vn -0.7071067811865475 0.4999999999999999 0.5000000000000002
vn -0.7071067811865476 -1.7992751039243012e-16 0.7071067811865475
vn -0.7071067811865478 -0.49999999999999994 0.49999999999999983
vn -0.7071067811865477 -0.7071067811865475 0
vn -0.894427190999916 0.3162277660168384 0.31622776601683783
vn -0.894427190999916 -8.907891358776857e-17 0.447213595499958
vn -0.8944271909999161 -0.3162277660168378 0.3162277660168377
vn -0.8944271909999161 -0.44721359549995776 0
vn -0.8944271909999162 -0.3162277660168376 -0.316227766016838
vn -0.8944271909999161 4.862843781073326e-16 -0.44721359549995804
vn -0.8944271909999159 0.3162277660168383 -0.31622776601683783
vn -0.894427190999916 0.44721359549995826 0
usemtl m_7a66ddc5-1cb6-7e6d-a754-b98ccfc03f8a
f 4/1/1 2/2/1 1/3/1
f 2/4/2 4/5/2 5/6/2 3/7/2
f 50/8/3 51/9/3 52/10/3
f 6/11/4 4/12/4 1/13/4
f 4/14/5 6/15/5 7/16/5 5/17/5
f 51/18/6 58/19/6 52/20/6
f 8/21/7 6/22/7 1/23/7
f 6/24/8 8/25/8 9/26/8 7/27/8
f 58/28/9 57/29/9 52/30/9
f 10/31/10 8/32/10 1/33/10
f 8/34/11 10/35/11 11/36/11 9/37/11
f 57/38/12 56/39/12 52/40/12
f 12/41/13 10/42/13 1/43/13
f 10/44/14 12/45/14 13/46/14 11/47/14
f 56/48/15 55/49/15 52/50/15
f 14/51/16 12/52/16 1/53/16
f 12/54/17 14/55/17 15/56/17 13/57/17
f 55/58/18 54/59/18 52/60/18
f 16/61/19 14/62/19 1/63/19
f 14/64/20 16/65/20 17/66/20 15/67/20
f 54/68/21 53/69/21 52/70/21
f 2/71/22 16/72/22 1/73/22
f 16/74/23 2/75/23 3/76/23 17/77/23
f 53/78/24 50/79/24 52/80/24
f 19/81/25 18/82/25 5/83/25 7/84/25
f 20/85/26 19/86/26 7/87/26 9/88/26
f 21/89/27 20/90/27 9/91/27 11/92/27
f 22/93/28 21/94/28 11/95/28 13/96/28
f 23/97/29 22/98/29 13/99/29 15/100/29
f 25/101/30 24/102/30 17/103/30 3/104/30
f 24/105/31 23/106/31 15/107/31 17/108/31
f 18/109/32 25/110/32 3/111/32 5/112/32
f 27/113/33 26/114/33 18/115/33 19/116/33
f 28/117/34 27/118/34 19/119/34 20/120/34
f 29/121/35 28/122/35 20/123/35 21/124/35
f 30/125/36 29/126/36 21/127/36 22/128/36
f 31/129/37 30/130/37 22/131/37 23/132/37
f 33/133/38 32/134/38 24/135/38 25/136/38
f 32/137/39 31/138/39 23/139/39 24/140/39
f 26/141/40 33/142/40 25/143/40 18/144/40
f 35/145/41 34/146/41 33/147/41 26/148/41
f 34/149/42 36/150/42 32/151/42 33/152/42
f 36/153/43 37/154/43 31/155/43 32/156/43
f 37/157/44 38/158/44 30/159/44 31/160/44
f 38/161/45 39/162/45 29/163/45 30/164/45
f 39/165/46 40/166/46 28/167/46 29/168/46
f 40/169/47 41/170/47 27/171/47 28/172/47
f 41/173/48 35/174/48 26/175/48 27/176/48
f 43/177/49 42/178/49 34/179/49 35/180/49
f 42/181/50 44/182/50 36/183/50 34/184/50
f 44/185/51 45/186/51 37/187/51 36/188/51
f 45/189/52 46/190/52 38/191/52 37/192/52
f 46/193/53 47/194/53 39/195/53 38/196/53
f 47/197/54 48/198/54 40/199/54 39/200/54
f 48/201/55 49/202/55 41/203/55 40/204/55
f 49/205/56 43/206/56 35/207/56 41/208/56
f 51/209/57 50/210/57 42/211/57 43/212/57
f 50/213/58 53/214/58 44/215/58 42/216/58
f 53/217/59 54/218/59 45/219/59 44/220/59
f 54/221/60 55/222/60 46/223/60 45/224/60
f 55/225/61 56/226/61 47/227/61 46/228/61
f 56/229/62 57/230/62 48/231/62 47/232/62
f 57/233/63 58/234/63 49/235/63 48/236/63
f 58/237/64 51/238/64 43/239/64 49/240/64